<?xml version="1.0" encoding="UTF-8" standalone="no"?>
<!-- Created with Inkscape (http://www.inkscape.org/) -->
<svg xmlns:svg="http://www.w3.org/2000/svg" xmlns="http://www.w3.org/2000/svg" version="1.0" width="554.03888" height="525.13672" id="svg2">
  <defs id="defs4"/>
  <g transform="matrix(-1, 0, 0, 1, 847.506, -72.2382)" id="layer1">
    <path d="M 293.46701,384.68804 L 293.46701,266.5923 C 293.46701,266.5923 299.18331,146.55006 407.79296,146.55006 C 516.4026,146.55006 623.86899,146.55006 623.86899,146.55006 L 623.86899,72.238185 L 847.5059,201.35503 L 623.86899,330.47187 L 623.86899,255.1597 L 432.94467,255.1597 C 432.94467,255.1597 404.36318,254.01644 404.36318,289.45748 C 404.36318,324.89853 404.36318,383.54478 404.36318,383.54478 L 293.46701,384.68804 z " style="overflow: visible; marker: none; opacity: 1; color: rgb(0, 0, 0); fill: rgb(0, 0, 0); fill-opacity: 1; fill-rule: nonzero; stroke: none; stroke-width: 1; stroke-linecap: butt; stroke-linejoin: miter; stroke-miterlimit: 4; stroke-dasharray: none; stroke-dashoffset: 0pt; stroke-opacity: 1; visibility: visible; display: inline;" id="path1937"/>
  </g>
  <g transform="matrix(0, -1, 1, 0, -353.537, 971.852)" id="g2234">
    <path d="M 766.84248,907.13505 L 568.2267,907.13505 C 568.2267,907.13505 448.18446,901.41875 448.18446,792.8091 C 448.18446,684.19946 446.71486,401.85077 446.71486,401.85077 L 555.3245,401.85077 L 556.7941,767.65739 C 556.7941,767.65739 555.65084,796.23888 591.09188,796.23888 C 626.53293,796.23888 765.69922,796.23888 765.69922,796.23888 L 766.84248,907.13505 z " style="overflow: visible; marker: none; opacity: 1; color: rgb(0, 0, 0); fill: rgb(0, 0, 0); fill-opacity: 1; fill-rule: nonzero; stroke: none; stroke-width: 1; stroke-linecap: butt; stroke-linejoin: miter; stroke-miterlimit: 4; stroke-dasharray: none; stroke-dashoffset: 0pt; stroke-opacity: 1; visibility: visible; display: inline;" id="path2236"/>
  </g>
</svg>