<?xml version="1.0" encoding="UTF-8" standalone="no"?>
<!-- Created with Inkscape (http://www.inkscape.org/) -->
<svg xmlns:svg="http://www.w3.org/2000/svg" xmlns="http://www.w3.org/2000/svg" version="1.0" width="115.90717" height="118.74567" id="svg2">
  <defs id="defs5"/>
  <g transform="translate(-8.07911, -5.57971)" id="g2229">
    <path d="M 61.605948,122.35639 C 59.691189,121.18891 58.131193,119.26223 57.763003,117.61013 C 57.422123,116.08057 56.968305,114.15411 56.754518,113.32911 C 56.540731,112.50411 57.027215,109.35411 57.835594,106.32911 C 58.643973,103.30411 59.310714,97.758618 59.317242,94.00579 C 59.327547,88.081643 59.101949,87.226213 57.60531,87.514439 C 56.439837,87.738889 55.641096,89.2547 55.139251,92.194404 C 54.731009,94.585799 53.819219,97.23894 53.113052,98.090272 C 52.406884,98.941605 47.811772,101.59361 42.901691,103.98363 C 24.669384,112.85833 19.055163,107.99247 26.829111,90.053483 C 28.754111,85.611396 30.329111,81.447306 30.329111,80.799949 C 30.329111,80.152592 26.445105,78.359487 21.697986,76.815271 C 11.797942,73.594831 8.0791108,70.925133 8.0791108,67.038465 C 8.0791108,62.428285 10.742686,59.778203 18.127605,57.040872 C 29.243281,52.92068 31.40549,52.762601 35.805388,55.748453 C 39.925909,58.544714 41.830979,58.944125 42.888251,57.233424 C 43.85711,55.665777 34.520101,46.529973 31.204891,45.801831 C 26.722415,44.817314 23.282943,41.410927 20.207625,34.910353 C 16.885553,27.88819 16.582145,24.07608 19.141611,21.516614 C 20.138486,20.519739 20.760245,19.122517 20.523298,18.411675 C 19.965103,16.737091 22.464491,17.5018 32.639721,22.118796 C 40.48991,25.680807 42.247305,27.474224 43.652032,33.356825 C 43.984013,34.747065 45.628415,37.199744 47.30626,38.807222 C 51.095647,42.437685 51.848279,41.793225 55.739217,31.586288 C 57.62602,26.636716 59.423005,23.686381 61.414666,22.268194 C 63.017611,21.126796 64.329111,19.548568 64.329111,18.76102 C 64.329111,17.973472 64.779111,17.329114 65.329111,17.329114 C 65.879111,17.329114 66.329111,17.99374 66.329111,18.806061 C 66.329111,19.618382 67.413726,20.993675 68.739366,21.862267 C 70.231915,22.840223 72.382369,26.499694 74.387303,31.473474 C 76.168028,35.891045 78.24979,39.745181 79.013441,40.038222 C 81.226641,40.887506 94.978427,25.743595 97.941506,19.194024 C 100.03414,14.568481 101.34288,13.095211 105.24662,10.970528 C 107.86228,9.5469042 112.70527,7.7515791 116.00881,6.9809162 L 122.01524,5.5797109 L 123.27111,10.479868 C 124.48741,15.225614 124.41475,15.616348 120.96544,22.879614 C 117.50736,30.161347 117.22126,30.461154 111.11651,33.200277 C 106.5801,35.235703 103.20672,37.773774 99.003497,42.313903 C 92.252419,49.606101 92.30359,49.775194 102.32911,53.303186 C 105.90411,54.561233 111.86661,56.941971 115.57911,58.593716 C 122.18101,61.530995 122.32911,61.679285 122.32911,65.352217 C 122.32911,67.497384 121.57877,69.968192 120.57911,71.114804 C 119.19429,72.703197 102.94689,79.551812 93.106753,82.694971 C 92.159456,82.997558 90.577613,84.951526 89.591546,87.037122 C 87.84638,90.72826 87.666118,90.824189 82.813904,90.643956 C 80.072268,90.542118 76.479111,90.317118 74.829111,90.143956 C 71.904219,89.836996 71.82143,89.949256 71.522328,94.627877 C 71.353598,97.267197 71.916098,101.83645 72.772328,104.78178 C 74.719858,111.48105 74.734463,114.64456 72.834822,118.31807 C 71.320905,121.24566 67.735503,124.33221 65.856605,124.32537 C 65.291483,124.32332 63.378688,123.43727 61.605948,122.35639 z " style="fill: rgb(232, 232, 232);" id="path2209"/>
    <path d="M 61.376565,118.87962 C 58.327168,115.63369 58.220749,110.06813 61.10237,104.53962 C 64.260289,98.481022 64.06874,82.329114 60.83897,82.329114 C 58.17243,82.329114 54.390643,86.489038 53.754054,90.122445 C 52.707054,96.098322 50.672055,98.235217 42.063759,102.39809 C 30.363754,108.05608 25.329111,107.43037 25.329111,100.31829 C 25.329111,96.939014 32.22098,81.779326 34.902523,79.260147 C 36.237147,78.006333 37.329111,76.314183 37.329111,75.499812 C 37.329111,74.283673 37.673623,74.330918 39.257447,75.764259 C 41.433881,77.733905 45.329111,77.090737 45.329111,74.761726 C 45.329111,72.146244 39.314448,72.491304 35.319475,75.335976 C 31.759296,77.871047 30.339401,77.849671 22.000557,75.135471 C 13.785399,72.461529 9.9127642,69.287423 10.583653,65.777897 C 10.841116,64.431066 10.66417,63.329114 10.190439,63.329114 C 6.0725451,63.329114 14.436396,59.589958 32.079111,53.54353 C 32.797711,53.297255 33.329111,53.942621 33.329111,55.06161 C 33.329111,57.510444 37.184668,59.329114 42.376164,59.329114 C 45.045299,59.329114 46.329111,58.886755 46.329111,57.967058 C 46.329111,55.097788 36.825512,46.103734 30.755101,43.228065 C 25.468507,40.723704 24.405689,39.733517 22.556675,35.589902 C 19.45373,28.636244 19.206633,27.114683 20.71009,24.219081 C 21.633868,22.439919 21.759751,21.063108 21.105529,19.894078 C 20.577669,18.950845 20.354202,17.970689 20.608937,17.715955 C 20.863671,17.46122 25.410798,19.180117 30.713663,21.535726 C 37.479172,24.541062 40.197044,26.230893 39.82492,27.20063 C 39.533247,27.960719 39.690319,29.088074 40.17397,29.705862 C 40.657622,30.323651 41.320894,31.954114 41.64791,33.329114 C 42.368408,36.358583 50.737218,44.812958 52.150756,43.939343 C 52.705264,43.596638 54.570978,39.618525 56.296786,35.099092 C 58.022594,30.579659 59.945948,26.565922 60.570906,26.179676 C 61.195864,25.793431 62.4788,23.531545 63.421875,21.153263 L 65.136557,16.829114 L 67.150074,21.468949 C 68.257509,24.020858 69.618003,26.389625 70.173396,26.732877 C 70.728788,27.076128 71.727847,29.038203 72.393527,31.093042 C 74.534578,37.702101 77.512931,43.329114 78.870027,43.329114 C 81.321081,43.329114 97.720372,25.449082 100.02251,20.266706 C 101.22888,17.55103 101.90388,15.311097 101.52251,15.289076 C 99.626428,15.179595 119.37595,6.329114 121.51634,6.329114 C 122.06586,6.329114 122.06584,6.9771396 121.51629,7.9591231 C 121.01458,8.8556282 120.81648,11.47339 121.07605,13.776371 C 121.43693,16.978087 120.92028,19.202391 118.88091,23.226887 C 116.55905,27.808871 115.47697,28.815868 110.52146,31.006365 C 103.2489,34.221067 89.460172,47.937001 91.538983,49.888623 C 92.248553,50.554779 99.129111,53.434599 106.82911,56.288221 C 120.63411,61.40436 124.49875,63.329114 120.96625,63.329114 C 119.85705,63.329114 119.29776,63.978005 119.4579,65.079114 C 119.87564,67.951606 118.44092,70.935446 116.06254,72.140552 C 113.76471,73.304845 96.61904,79.632439 92.5416,80.820935 C 91.283469,81.187656 89.112501,83.296093 87.717227,85.50635 C 85.365377,89.231922 84.912303,89.489773 81.504738,89.04198 C 79.483143,88.77632 76.030289,87.874488 73.831729,87.037911 C 71.633169,86.201333 69.495669,85.726175 69.081729,85.982004 C 68.667789,86.237833 68.329111,89.988447 68.329111,94.316702 C 68.329111,100.28024 68.726712,102.58385 69.970719,103.82786 C 71.097781,104.95492 71.646301,107.3546 71.720719,111.48381 C 71.814168,116.66899 71.503646,117.76222 69.468327,119.41363 C 66.316865,121.97065 64.145831,121.82737 61.376565,118.87962 z " style="fill: rgb(216, 216, 216);" id="path2207"/>
    <path d="M 61.976907,117.49242 C 59.60547,114.87201 60.035653,105.21861 62.553201,104.56026 C 64.133805,104.14692 64.329111,102.73398 64.329111,91.712483 C 64.329111,80.526485 64.157758,79.329114 62.556955,79.329114 C 59.194314,79.329114 53.643584,84.962791 52.987445,89.041626 C 52.091911,94.608633 49.946464,96.996664 42.50511,100.70919 C 33.426717,105.23844 31.029273,105.71665 28.335714,103.53554 C 26.299425,101.88665 26.223849,101.42611 27.311189,97.292226 C 28.241376,93.755807 36.26102,77.253152 37.940925,75.418578 C 38.147683,75.192783 39.18736,75.795843 40.251317,76.758711 C 42.347879,78.656074 45.31874,78.251463 47.361251,75.790388 C 50.785835,71.664017 41.471902,69.72528 35.554941,73.332852 C 31.386414,75.874404 27.241652,75.856978 20.329111,73.268839 C 14.285745,71.006129 12.329111,69.13978 12.329111,65.637984 C 12.329111,64.131597 11.73825,63.329114 10.629111,63.329114 C 7.3180393,63.329114 10.870464,61.399516 21.603906,57.367851 C 27.517653,55.146546 32.545195,53.329114 32.77622,53.329114 C 33.007246,53.329114 33.338656,54.566614 33.512689,56.079114 C 33.824156,58.78605 33.950472,58.833688 41.579111,59.121178 C 46.840428,59.319455 49.329111,59.05082 49.329111,58.284624 C 49.329111,57.663884 46.594468,54.308159 43.252126,50.827458 C 39.000725,46.400064 35.53013,43.831248 31.699241,42.276404 C 27.000563,40.36935 25.876009,39.368473 23.776226,35.22475 C 21.254593,30.248547 20.619732,25.885568 22.268959,24.86629 C 22.825548,24.522299 22.616182,22.867082 21.755539,20.807273 C 20.956241,18.894286 20.540662,17.329114 20.832029,17.329114 C 21.123395,17.329114 25.687506,19.350534 30.974496,21.821158 C 38.323474,25.255354 40.341372,26.609443 39.543294,27.571158 C 37.840212,29.623439 40.520927,34.251684 47.182446,40.76013 C 52.547735,46.002131 53.336886,46.466817 53.97542,44.76013 C 54.9071,42.269921 60.601203,28.078319 62.875119,22.579114 C 63.841674,20.241614 64.948711,18.329114 65.335203,18.329114 C 65.721694,18.329114 68.402502,24.404114 71.292552,31.829114 C 74.182603,39.254114 77.085515,45.329114 77.743468,45.329114 C 79.797163,45.329114 101.32911,22.798295 101.32911,20.649329 C 101.32911,19.556544 101.66087,18.330687 102.06636,17.925201 C 102.47184,17.519716 102.80934,16.522578 102.81636,15.709339 C 102.82405,14.817835 106.34995,12.661982 111.69619,10.279919 C 121.96819,5.7031403 122.81706,5.5488482 121.21059,8.5505718 C 120.5567,9.7723737 120.07698,12.242465 120.14454,14.039663 C 120.29038,17.919034 117.35207,25.169364 114.7087,27.452687 C 113.67492,28.345652 111.02911,29.642773 108.82911,30.335179 C 105.9579,31.238835 102.5024,34.013255 96.584149,40.166645 C 92.04942,44.881544 88.67442,49.044018 89.084149,49.416585 C 89.493878,49.789153 96.916611,52.729119 105.57911,55.949843 C 114.24161,59.170568 121.32911,62.118148 121.32911,62.500022 C 121.32911,62.881896 120.47533,63.465317 119.43183,63.796513 C 118.24233,64.174043 117.70403,65.046802 117.98886,66.136005 C 118.90075,69.623075 111.79738,73.241901 90.829111,79.9726 C 88.565712,80.699138 87.8876,81.474962 88.067321,83.132348 C 88.217505,84.517338 87.755589,85.329114 86.817321,85.329114 C 85.998806,85.329114 85.329111,85.72663 85.329111,86.212483 C 85.329111,87.84226 81.044604,88.237079 77.848818,86.901795 C 76.107979,86.174426 73.028883,84.126396 71.006384,82.350618 L 67.329111,79.12193 L 67.329111,91.725522 C 67.329111,101.72302 67.612045,104.32911 68.697442,104.32911 C 70.743607,104.32911 71.477723,112.03767 69.811366,116.02582 C 68.214127,119.84855 64.70386,120.50567 61.976907,117.49242 z " style="fill: rgb(199, 199, 199);" id="path2205"/>
    <path d="M 62.968945,116.07911 C 62.195495,114.84161 61.333292,111.9565 61.052937,109.66775 C 60.62575,106.18029 60.849753,105.42622 62.436156,105.01137 C 64.176317,104.55631 64.329111,103.41911 64.329111,90.922734 C 64.329111,75.563896 64.24541,75.433933 57.500511,80.319912 C 53.49913,83.218498 51.455261,87.106177 52.793985,89.272279 C 53.153223,89.853538 53.025181,90.329114 52.509448,90.329114 C 51.993715,90.329114 50.98996,91.733683 50.278882,93.450378 C 48.096785,98.718426 30.969138,105.79175 28.81903,102.3128 C 28.473566,101.75383 27.772009,101.55538 27.260013,101.87182 C 26.748017,102.18825 26.329111,101.95403 26.329111,101.35134 C 26.329111,99.81401 37.43211,75.329114 38.129236,75.329114 C 38.443271,75.329114 39.746864,76.312395 41.026109,77.514184 L 43.352009,79.699254 L 46.818193,76.339696 C 49.474355,73.765243 50.027296,72.670376 49.184299,71.654626 C 47.509967,69.63718 39.364323,70.026383 35.067926,72.329114 C 30.164083,74.957417 26.56903,74.852245 19.857624,71.884143 C 15.249038,69.846007 14.329111,69.017194 14.329111,66.903195 C 14.329111,65.012901 13.673947,64.202782 11.755895,63.721382 C 10.340626,63.366172 9.5531261,62.716222 10.005895,62.277048 C 10.707161,61.596839 31.920688,53.329114 32.964719,53.329114 C 33.165135,53.329114 33.329111,54.679114 33.329111,56.329114 L 33.329111,59.329114 L 42.329111,59.329114 C 49.154558,59.329114 51.329111,59.007522 51.329111,57.998113 C 51.329111,55.545999 37.063133,42.709012 32.829111,41.351216 C 30.629111,40.645705 28.193479,39.564614 27.416595,38.948791 C 25.065253,37.084922 22.220338,29.610683 22.872778,27.011152 C 23.203799,25.692259 22.789854,22.974253 21.9529,20.971139 C 21.115945,18.968025 20.601447,17.329114 20.80957,17.329114 C 21.017693,17.329114 25.560478,19.358531 30.904648,21.838929 C 40.448328,26.268454 40.589362,26.384058 38.826291,28.33223 C 37.073022,30.26957 37.243936,30.531072 46.17271,39.572415 C 54.024642,47.52334 55.286209,48.4625 55.116028,46.230166 C 54.914795,43.590506 64.059645,18.329114 65.216459,18.329114 C 66.152327,18.329114 75.740631,43.516147 75.586037,45.568435 C 75.513091,46.536808 75.769435,47.329114 76.155688,47.329114 C 76.541942,47.329114 82.678975,41.495157 89.793539,34.364765 C 101.41952,22.712923 102.72911,21.047612 102.72911,17.915579 C 102.72911,14.503921 102.9148,14.345679 111.57185,10.379928 C 116.43535,8.1519804 120.85691,6.329114 121.39753,6.329114 C 121.93815,6.329114 121.67035,7.7023398 120.80242,9.3807269 C 119.93449,11.059114 119.01215,14.089915 118.75277,16.115841 C 117.84272,23.223836 115.22775,26.578703 108.63527,29.096053 C 103.6537,30.998276 101.20264,32.887405 94.344409,40.110593 C 77.538298,57.811022 77.177985,58.329114 81.674123,58.329114 C 84.738544,58.329114 87.329111,55.380887 87.329111,51.893385 C 87.329111,50.089323 87.767421,49.278273 88.579111,49.58038 C 113.95961,59.026866 121.32911,61.913124 121.32911,62.406895 C 121.32911,62.737549 120.20411,63.520668 118.82911,64.14716 C 117.45411,64.773652 116.32911,65.901139 116.32911,66.652688 C 116.32911,67.404236 115.47441,68.792629 114.42978,69.738007 C 111.69716,72.210995 96.660829,77.592065 91.079111,78.094539 C 86.147194,78.538517 85.62436,79.143757 87.364295,82.394855 C 88.225426,84.003894 88.067212,84.329114 86.423312,84.329114 C 85.33642,84.329114 84.16903,84.779114 83.829111,85.329114 C 82.043205,88.218771 71.329111,83.491107 71.329111,79.813406 C 71.329111,79.035748 70.422435,77.914243 69.314274,77.321174 C 66.372212,75.74663 66.018706,77.536943 66.516243,91.491652 C 66.864125,101.24889 67.266237,103.80997 68.6039,104.78809 C 69.984829,105.79785 70.121867,106.8777 69.426953,111.2737 C 68.327795,118.22693 65.586328,120.26686 62.968945,116.07911 z " style="fill: rgb(183, 182, 182);" id="path2203"/>
    <path d="M 64.396394,116.43972 C 63.688629,115.12556 62.755817,112.87556 62.323479,111.43972 C 61.89114,110.00389 61.217397,108.04161 60.826271,107.07911 C 60.282571,105.74115 60.611223,105.32911 62.222122,105.32911 C 64.267901,105.32911 64.329111,104.90787 64.329111,90.829114 C 64.329111,76.942381 64.243577,76.329114 62.306768,76.329114 C 61.194479,76.329114 58.269479,78.186426 55.806768,80.456474 C 51.582592,84.350183 50.213383,87.521522 52.220819,88.762186 C 53.65793,89.65037 46.226558,96.921069 41.329111,99.418406 C 37.009044,101.62132 26.329111,102.90093 26.329111,101.21563 C 26.329111,100.39364 37.236379,76.088512 37.905562,75.41933 C 38.142851,75.182041 39.474372,76.056402 40.864496,77.362356 L 43.391995,79.736818 L 47.5782,75.550613 C 52.363304,70.765509 51.977006,69.493958 45.473165,68.62161 C 42.307995,68.197072 40.151955,68.670342 36.002409,70.700526 C 33.047456,72.146249 29.32462,73.319231 27.729439,73.307152 C 23.221704,73.273018 16.445448,69.765302 15.357054,66.90261 C 14.804568,65.449461 13.296908,64.108152 11.791265,63.730259 C 10.356543,63.370167 9.5531261,62.716222 10.005895,62.277048 C 10.707161,61.596839 31.920688,53.329114 32.964719,53.329114 C 33.165135,53.329114 33.329111,54.679114 33.329111,56.329114 L 33.329111,59.329114 L 43.71248,59.329114 C 57.515845,59.329114 57.883987,58.316884 47.743892,48.244464 C 41.020314,41.565759 40.020081,40.928172 35.889801,40.688206 C 33.408804,40.544062 30.472353,39.940958 29.364354,39.347976 C 26.731037,37.938667 24.211793,32.976505 24.108142,28.994801 C 24.062818,27.253673 23.209986,23.916614 22.21296,21.579114 C 21.215934,19.241614 20.577438,17.329114 20.794081,17.329114 C 21.010723,17.329114 25.560478,19.358531 30.904648,21.838929 C 40.536804,26.309518 40.605286,26.366463 38.777853,28.385753 C 36.958946,30.395623 37.077698,30.565354 47.691594,41.125938 C 55.36747,48.763259 58.079435,50.969784 57.15931,48.829114 C 56.45009,47.179114 55.583944,45.604114 55.234541,45.329114 C 54.483596,44.738078 64.283402,18.329114 65.253668,18.329114 C 65.618813,18.329114 68.051786,24.066614 70.660274,31.079114 C 74.861845,42.37436 75.284958,44.226692 74.36859,47.313639 C 73.46239,50.366334 75.138909,49.003128 87.896776,36.313639 C 103.97892,20.317692 105.07022,18.927022 103.256,16.741026 C 102.58946,15.937892 102.23253,15.092359 102.46283,14.862064 C 103.18056,14.14433 120.48257,6.329114 121.35382,6.329114 C 122.15248,6.329114 118.91139,15.177331 115.4972,22.31776 C 113.71276,26.049734 110.65793,27.983644 105.82911,28.438299 C 103.50092,28.657509 99.861969,31.640942 89.579111,41.761045 C 82.229648,48.994182 76.329111,55.610103 76.329111,56.61748 C 76.329111,58.18011 77.061976,58.39144 81.579111,58.131374 L 86.829111,57.829114 L 87.140682,53.495752 C 87.3443,50.663808 87.864018,49.315401 88.640682,49.604007 C 113.5388,58.856063 121.32911,61.940963 121.32911,62.548358 C 121.32911,62.956817 120.1884,63.57731 118.7942,63.927232 C 117.4,64.277154 115.62122,65.797343 114.84136,67.30543 C 113.39067,70.110743 112.82072,70.418242 100.96005,74.794577 C 93.454085,77.564119 90.265146,77.900432 87.177723,76.248094 C 84.310034,74.713353 84.192415,75.307914 86.391873,80.220562 L 88.336331,84.563649 L 85.808854,84.080491 C 84.418741,83.814754 83.040559,83.986984 82.746227,84.463223 C 81.851958,85.910181 77.957412,85.369791 75.703099,83.485952 C 74.533793,82.508809 72.820266,80.245796 71.895262,78.457035 C 70.821168,76.379967 69.601969,75.321789 68.521273,75.528655 C 67.083949,75.803786 66.782924,77.43209 66.522424,86.340841 C 66.138759,99.461669 66.903966,105.32911 68.998792,105.32911 C 70.786158,105.32911 70.304973,108.24184 67.429388,114.82911 L 65.68324,118.82911 L 64.396394,116.43972 z " style="fill: rgb(201, 163, 163);" id="path2201"/>
    <path d="M 64.442094,116.52511 C 63.759463,115.25792 62.598825,112.22042 61.862897,109.77511 C 60.607295,105.60306 60.642052,105.32911 62.426979,105.32911 C 64.209034,105.32911 64.329111,104.41376 64.329111,90.829114 C 64.329111,76.942381 64.243577,76.329114 62.306768,76.329114 C 61.194479,76.329114 58.234193,78.218952 55.728354,80.528753 C 52.075999,83.895377 51.268097,85.229608 51.655326,87.255265 C 52.403489,91.169028 47.532641,96.515875 40.236183,99.79033 C 35.071525,102.10809 33.438242,102.41765 30.193998,101.69369 L 26.319616,100.82911 L 32.002973,88.329114 C 35.128819,81.454114 37.83273,75.63984 38.011663,75.408504 C 38.190597,75.177169 39.474372,76.056402 40.864496,77.362356 L 43.391995,79.736818 L 47.5782,75.550613 C 52.363304,70.765509 51.977006,69.493958 45.473165,68.62161 C 42.307995,68.197072 40.151955,68.670342 36.002409,70.700526 C 33.047456,72.146249 29.32462,73.319231 27.729439,73.307152 C 23.273059,73.273407 16.445163,69.764554 15.378969,66.96025 C 14.86456,65.607251 13.517901,64.206421 12.386395,63.847295 C 11.254889,63.488169 10.331211,62.887163 10.333778,62.511726 C 10.336345,62.13629 15.398845,59.970162 21.583778,57.698109 L 32.829111,53.567104 L 33.142469,56.448109 L 33.455828,59.329114 L 43.775838,59.329114 C 57.508223,59.329114 57.874096,58.307059 47.743892,48.244464 C 41.020314,41.565759 40.020081,40.928172 35.889801,40.688206 C 33.408804,40.544062 30.472353,39.940958 29.364354,39.347976 C 26.602049,37.869635 24.469923,33.415106 23.971648,28.081302 C 23.742393,25.627242 23.054037,22.68365 22.441966,21.539986 C 20.132183,17.224117 20.834728,17.289943 31.76895,22.413892 C 40.245583,26.386176 40.437477,26.55189 38.736793,28.431124 C 37.059107,30.284946 37.10614,30.495118 39.89268,33.596346 C 47.401171,41.952779 51.118791,45.72557 54.555322,48.476582 L 58.281532,51.459489 L 56.710645,47.699826 C 55.159314,43.98697 55.199521,43.780739 59.940205,31.134639 C 62.580452,24.0916 64.985557,18.333589 65.284882,18.339058 C 65.584208,18.344528 67.974971,24.082028 70.597689,31.089058 C 74.695425,42.036848 75.231294,44.291554 74.406829,47.116304 L 73.447391,50.403493 L 77.138251,47.455578 C 82.504238,43.169727 101.83735,23.22853 103.25712,20.515192 C 104.205,18.703691 104.20476,17.884207 103.256,16.741026 C 102.58946,15.937892 102.24033,15.084566 102.48015,14.844745 C 103.18698,14.137907 120.762,6.4286673 121.0378,6.7044718 C 121.6544,7.321067 115.23886,23.771359 113.73275,25.435587 C 112.2375,27.087829 109.96714,27.852249 104.02716,28.703425 C 101.48124,29.068245 76.329111,54.416043 76.329111,56.616945 C 76.329111,58.180221 77.061441,58.391471 81.579111,58.131374 L 86.829111,57.829114 L 87.329111,53.668766 L 87.829111,49.508418 L 102.32911,54.916559 C 110.30411,57.891037 117.95038,60.815604 119.32082,61.415598 L 121.81252,62.506495 L 118.66626,63.829398 C 116.93582,64.556995 115.22158,66.092562 114.85683,67.241769 C 114.04797,69.790276 112.84297,70.45732 101.88576,74.422102 C 93.673699,77.393574 90.363239,77.696225 86.086757,75.866489 C 84.456838,75.169111 84.440705,75.393953 85.836757,79.350786 C 87.720225,84.689102 87.722794,84.665327 85.330107,84.039625 C 84.230655,83.752112 83.079097,83.924628 82.77109,84.422994 C 81.855043,85.905188 77.983962,85.391978 75.703099,83.485952 C 74.533793,82.508809 72.820266,80.245796 71.895262,78.457035 C 70.820746,76.379152 69.602393,75.322006 68.521273,75.529481 C 67.038265,75.814081 66.794906,77.675793 66.552378,90.591667 C 66.284405,104.86257 66.340408,105.32911 68.32143,105.32911 C 70.042417,105.32911 70.265123,105.76571 69.724176,108.07911 C 69.370504,109.59161 68.31661,112.62911 67.382188,114.82911 C 65.708321,118.77006 65.664916,118.7951 64.442094,116.52511 z " style="fill: rgb(167, 167, 167);" id="path2199"/>
    <path d="M 64.840741,117.34793 C 64.507219,116.80828 63.379899,113.88328 62.335585,110.84793 C 60.459935,105.39626 60.460512,105.32911 62.382972,105.32911 C 64.224662,105.32911 64.329111,104.52406 64.329111,90.329114 L 64.329111,75.329114 L 61.806768,75.329114 C 60.240977,75.329114 57.586356,76.894339 54.806768,79.456474 C 50.331674,83.581472 49.378328,85.978331 51.406152,88.006155 C 52.17554,88.775543 51.390012,90.147202 48.656152,92.8081 C 43.412275,97.912026 37.8888,100.53126 31.636783,100.87869 L 26.368136,101.17147 L 27.694508,98.000295 C 29.374118,93.98457 37.613228,75.969915 38.026999,75.408504 C 38.197498,75.177169 39.469131,76.051479 40.852849,77.351415 L 43.368701,79.714935 L 48.297507,74.860243 C 52.163921,71.051967 53.029428,69.637668 52.312896,68.298815 C 51.810516,67.360111 51.683646,66.307913 52.030961,65.960597 C 52.378277,65.613281 49.185887,65.329114 44.936761,65.329114 C 40.332827,65.329114 37.447415,65.711517 37.795965,66.275483 C 38.681553,67.708394 31.253825,72.329114 28.064858,72.329114 C 24.018594,72.329114 18.673999,69.84206 17.332124,67.334743 C 16.69524,66.144716 14.859019,64.712598 13.251632,64.15226 C 11.644246,63.591922 10.331211,62.839985 10.333778,62.481289 C 10.336345,62.122593 15.398845,59.970162 21.583778,57.698109 L 32.829111,53.567104 L 33.142469,56.448109 L 33.455828,59.329114 L 45.392469,59.329114 C 51.957622,59.329114 57.329111,58.999665 57.329111,58.597005 C 57.329111,58.194345 52.988798,53.508235 47.683972,48.183428 C 38.642554,39.107956 37.831745,38.535567 34.730363,39.038852 C 31.988086,39.483862 30.900551,39.0544 28.375502,36.529351 C 26.699987,34.853836 25.329111,32.553172 25.329111,31.416764 C 25.329111,30.280356 24.429338,26.98324 23.329615,24.089841 C 22.229893,21.196441 21.329893,18.716614 21.329615,18.579114 C 21.328023,17.789843 23.981496,18.764568 31.76895,22.413892 C 40.165121,26.34847 40.42296,26.567931 38.781021,28.382253 C 37.154101,30.179979 37.31198,30.537766 42.244693,36.23167 C 47.372255,42.15049 61.329111,55.092554 61.329111,53.928474 C 61.329111,52.669951 57.348826,45.959332 56.170356,45.230998 C 55.25559,44.665641 56.195398,41.124169 59.840697,31.400084 C 62.535673,24.21105 64.985557,18.333589 65.284882,18.339058 C 65.841035,18.349221 75.376643,43.218706 75.346003,44.579114 C 75.336712,44.991614 74.766611,45.340723 74.079111,45.354912 C 72.752643,45.382289 68.754908,53.088244 69.61893,53.952267 C 69.898907,54.232244 78.143367,46.584624 87.939951,36.957557 C 105.63124,19.572395 105.73924,19.439783 103.87998,17.385325 C 102.85041,16.247665 102.21237,15.11252 102.46211,14.862781 C 103.31389,14.011 120.78456,6.4512281 121.12182,6.7884939 C 121.30667,6.9733413 119.74143,11.294338 117.64351,16.390708 C 114.82524,23.23698 113.30681,25.742582 111.82911,25.985178 C 110.72911,26.165767 108.55397,26.472729 106.99547,26.667318 C 104.90558,26.928254 100.24675,30.929673 89.245475,41.912611 C 81.041475,50.102934 74.329111,57.147234 74.329111,57.566611 C 74.329111,57.985987 77.229455,58.329114 80.77432,58.329114 L 87.219529,58.329114 L 87.52432,53.921101 L 87.829111,49.513088 L 102.32911,54.918894 C 110.30411,57.892088 117.95038,60.815604 119.32082,61.415598 L 121.81252,62.506495 L 118.54502,63.880378 C 116.74789,64.636014 114.05162,66.454261 112.55331,67.920926 C 109.85921,70.558121 95.74729,76.249893 91.773391,76.302105 C 90.642744,76.31696 88.192819,75.204114 86.329111,73.829114 C 84.465403,72.454114 82.814115,71.329114 82.659582,71.329114 C 82.356244,71.329114 83.241063,73.688036 85.742066,79.546995 C 86.614941,81.59183 87.329111,83.412986 87.329111,83.594008 C 87.329111,83.77503 85.043343,83.85061 82.249626,83.761963 C 77.931016,83.62493 76.738474,83.128172 74.288403,80.445687 C 72.551494,78.544016 71.644548,76.670673 72.005459,75.730154 C 72.477754,74.499374 71.994231,74.23937 69.716683,74.499417 L 66.829111,74.829114 L 66.553065,90.079114 C 66.281786,105.06576 66.313854,105.32911 68.410054,105.32911 C 69.695859,105.32911 70.35985,105.8256 70.081756,106.57911 C 69.828023,107.26661 68.843713,110.19161 67.894401,113.07911 C 66.085263,118.58192 65.826743,118.94331 64.840741,117.34793 z " style="fill: rgb(145, 144, 144);" id="path2197"/>
    <path d="M 64.202653,115.57911 C 60.363587,105.77608 60.284929,105.32911 62.398863,105.32911 C 64.301378,105.32911 64.368982,104.70486 64.104504,89.579114 L 63.829111,73.829114 L 60.865543,74.054587 C 58.818238,74.210349 56.358681,75.823354 52.910334,79.271701 L 47.918693,84.263342 L 50.347697,86.848898 C 52.394009,89.027097 52.544503,89.581295 51.302906,90.366471 C 50.492319,90.879081 49.526137,91.305379 49.155836,91.313801 C 48.785535,91.322223 47.1393,92.459394 45.497536,93.840848 C 42.858953,96.061068 27.597313,101.93065 26.726714,101.06005 C 26.442415,100.77575 37.062354,76.635825 38.011663,75.408504 C 38.190597,75.177169 39.470576,76.052837 40.856062,77.354433 L 43.375127,79.720972 L 49.352119,73.806346 C 52.639465,70.553302 55.329111,67.315134 55.329111,66.610417 C 55.329111,65.649839 52.694584,65.329114 44.804111,65.329114 L 34.279111,65.329114 L 33.67754,68.33697 C 33.100637,71.221484 32.894118,71.327838 28.641325,70.930549 C 26.070034,70.690343 22.654139,69.44036 20.511745,67.95568 C 18.479531,66.547354 15.357078,64.886222 13.572961,64.264276 C 11.788843,63.642329 10.331211,62.839985 10.333778,62.481289 C 10.336345,62.122593 15.398845,59.970162 21.583778,57.698109 L 32.829111,53.567104 L 33.142469,56.448109 L 33.455828,59.329114 L 46.126838,59.329114 L 58.797847,59.329114 L 46.868435,47.368541 C 39.005212,39.484779 34.567835,35.716027 33.850029,36.311754 C 31.023295,38.657735 28.805726,36.604375 25.136427,28.243388 C 23.10545,23.615537 21.41795,19.491614 21.386427,19.079114 C 21.284116,17.740331 22.910697,18.262775 31.76895,22.413892 C 40.165121,26.34847 40.42296,26.567931 38.781021,28.382253 C 37.15425,30.179814 37.309045,30.534377 42.170534,36.146066 C 44.972306,39.380193 50.654165,45.059884 54.796888,48.767602 C 61.059015,54.372178 62.329111,55.148132 62.329111,53.369351 C 62.329111,49.890194 59.478134,45.329114 57.303431,45.329114 C 56.217555,45.329114 55.329111,44.879712 55.329111,44.330444 C 55.329111,42.762105 64.697944,18.327941 65.295032,18.339058 C 65.844349,18.349286 75.376291,43.234313 75.346003,44.579114 C 75.336712,44.991614 74.258705,45.329114 72.950431,45.329114 C 70.255511,45.329114 67.937741,49.556075 68.497118,53.450706 C 68.782645,55.43867 71.418387,53.228095 87.329111,37.656465 L 105.82911,19.550744 L 103.91857,17.433798 C 102.86778,16.269478 102.21237,15.11252 102.46211,14.862781 C 103.35482,13.97007 120.79297,6.4596406 121.1482,6.8148745 C 121.34756,7.0142313 119.60832,11.514995 117.28323,16.816571 C 114.29706,23.625529 112.74358,26.143582 111.99245,25.392457 C 109.26768,22.667686 106.42474,24.711914 89.829111,41.329114 L 72.851175,58.329114 L 80.035352,58.329114 L 87.219529,58.329114 L 87.52432,53.921101 L 87.829111,49.513088 L 102.32911,54.918894 C 124.20953,63.076226 122.86952,62.0889 115.90564,64.922113 C 112.64892,66.24709 109.2744,67.947596 108.40672,68.701016 C 106.30378,70.527019 96.869735,73.891155 91.579111,74.701662 C 87.79293,75.281694 87.329111,75.137031 87.329111,73.376115 C 87.329111,71.42823 84.058813,68.900543 82.332678,69.51426 C 81.845623,69.68743 82.805969,72.906216 84.46678,76.667118 C 86.127591,80.42802 87.295131,83.696427 87.061314,83.930244 C 86.515095,84.476464 75.49367,80.005959 71.418575,77.585245 C 71.19278,77.451117 71.784595,76.483292 72.733718,75.434522 C 74.859166,73.085929 73.582313,72.128474 69.431817,72.958573 L 66.329111,73.579114 L 66.329111,89.454114 C 66.329111,104.93114 66.381931,105.32911 68.4361,105.32911 C 69.701068,105.32911 70.358725,105.82865 70.081756,106.57911 C 69.828023,107.26661 68.843713,110.19161 67.894401,113.07911 C 66.945088,115.96661 65.968405,118.32911 65.723993,118.32911 C 65.479582,118.32911 64.794979,117.09161 64.202653,115.57911 z M 78.996405,68.663075 C 78.217346,67.884016 75.362672,69.5744 75.923882,70.482457 C 76.271648,71.045154 77.086647,70.945305 77.942305,70.235172 C 78.731631,69.580089 79.205976,68.872646 78.996405,68.663075 z " style="fill: rgb(173, 111, 111);" id="path2195"/>
    <path d="M 63.159375,112.22056 C 60.845875,106.1919 60.810882,105.81079 62.542905,105.50628 C 64.246752,105.20673 64.359326,104.05303 64.104134,89.506284 L 63.829111,73.829114 L 60.865543,74.054587 C 58.818238,74.210349 56.358681,75.823354 52.910334,79.271701 L 47.918693,84.263342 L 50.347697,86.848898 C 52.394009,89.027097 52.544503,89.581295 51.302906,90.366471 C 50.492319,90.879081 49.526137,91.305379 49.155836,91.313801 C 48.785535,91.322223 47.061831,92.52458 45.325382,93.985706 C 43.588933,95.446831 39.391906,97.426978 35.998656,98.386032 C 32.605406,99.345086 29.046892,100.44573 28.090847,100.83192 C 26.75345,101.37215 27.408587,99.15235 30.931692,91.206266 C 33.450201,85.525965 36.179998,79.58436 36.997907,78.002698 L 38.485015,75.12695 L 40.930071,77.423961 L 43.375127,79.720972 L 49.352119,73.806346 C 52.639465,70.553302 55.329111,67.315134 55.329111,66.610417 C 55.329111,65.649839 52.694584,65.329114 44.804111,65.329114 L 34.279111,65.329114 L 33.68868,68.281267 C 33.080744,71.320949 32.625234,71.431801 24.71397,70.465342 C 24.100642,70.390417 22.328309,69.316614 20.775451,68.079114 C 19.222593,66.841614 16.124407,65.089629 13.890592,64.185814 C 9.8348656,62.544843 9.8326531,62.540957 12.329111,61.443847 C 13.704111,60.83958 18.879111,58.82328 23.829111,56.963179 L 32.829111,53.581179 L 33.139476,56.955146 L 33.449842,60.329114 L 44.139476,60.258829 C 60.842961,60.149002 60.752723,60.553821 47.140436,46.796042 C 37.944406,37.501722 35.164858,35.220543 34.106397,36.098987 C 30.979794,38.693837 28.928359,36.805626 25.10221,27.811225 C 23.03591,22.953826 21.526678,18.798213 21.748362,18.57653 C 21.970046,18.354846 26.253326,20.079294 31.266763,22.408636 L 40.382103,26.643805 L 38.379863,28.77509 L 36.377624,30.906376 L 49.353368,43.853317 C 61.116231,55.590069 62.329111,56.539914 62.329111,54.015026 C 62.329111,49.974689 59.641175,45.329114 57.303431,45.329114 C 56.217555,45.329114 55.329111,45.018197 55.329111,44.638186 C 55.329111,43.106252 64.636639,19.329114 65.236312,19.329114 C 65.733355,19.329114 72.160093,35.429083 75.115944,44.079114 C 75.382245,44.858421 74.607099,45.329114 73.05742,45.329114 C 70.187077,45.329114 67.966621,49.431916 68.502316,53.745715 C 68.799866,56.141804 70.477012,54.726346 87.243577,37.928688 C 105.43818,19.700346 105.63938,19.451591 104.09498,17.094537 L 102.53192,14.709001 L 111.93051,10.592837 C 117.09974,8.3289472 121.30149,6.7809726 121.26772,7.1528937 C 121.23396,7.5248149 119.48721,11.654114 117.38606,16.329114 C 113.67382,24.588753 113.47693,24.820145 110.42338,24.511921 C 107.57174,24.224077 105.77962,25.642653 91.055043,39.843202 C 82.13078,48.449863 74.46925,56.1301 74.029421,56.910395 C 73.372203,58.076356 74.475939,58.329114 80.22463,58.329114 L 87.219529,58.329114 L 87.52432,53.979607 L 87.829111,49.630101 L 104.07911,55.718268 C 113.01661,59.066759 120.32911,62.114139 120.32911,62.490222 C 120.32911,62.866305 118.77625,63.686501 116.8783,64.31288 C 114.98035,64.939258 111.892,66.493759 110.0153,67.767325 C 105.82256,70.612593 97.268215,73.830109 91.579111,74.701662 C 87.759127,75.286872 87.329111,75.147024 87.329111,73.319493 C 87.329111,71.381654 82.950862,68.374029 81.802137,69.522755 C 81.51695,69.807942 82.643851,73.072988 84.306363,76.778413 C 85.968874,80.483837 87.329111,83.671287 87.329111,83.861633 C 87.329111,84.904811 76.821093,80.551536 72.498091,77.71742 C 72.31603,77.598063 72.654746,76.589176 73.250795,75.475449 C 74.613495,72.929221 73.441281,72.15668 69.431817,72.958573 L 66.329111,73.579114 L 66.329111,89.454114 C 66.329111,104.83493 66.393468,105.32911 68.396499,105.32911 C 70.661301,105.32911 70.656504,105.37283 67.475843,113.72056 L 65.612097,118.61201 L 63.159375,112.22056 z M 78.996405,68.663075 C 78.217346,67.884016 75.362672,69.5744 75.923882,70.482457 C 76.271648,71.045154 77.086647,70.945305 77.942305,70.235172 C 78.731631,69.580089 79.205976,68.872646 78.996405,68.663075 z " style="fill: rgb(170, 81, 81);" id="path2193"/>
    <path d="M 63.845985,114.02374 C 61.262455,107.84048 60.944762,105.32911 62.746096,105.32911 C 64.200332,105.32911 64.349629,103.59809 64.104504,89.579114 L 63.829111,73.829114 L 60.865543,74.054587 C 58.818238,74.210349 56.358681,75.823354 52.910334,79.271701 L 47.918693,84.263342 L 50.347697,86.848898 C 52.394009,89.027097 52.544503,89.581295 51.302906,90.366471 C 50.492319,90.879081 49.526137,91.305379 49.155836,91.313801 C 48.785535,91.322223 47.061831,92.52458 45.325382,93.985706 C 43.588933,95.446831 39.391906,97.426978 35.998656,98.386032 C 32.605406,99.345086 29.051275,100.44405 28.100587,100.82818 C 26.820745,101.34531 27.823013,98.321178 31.961767,89.177862 C 35.036104,82.38605 37.731974,76.63608 37.95259,76.400148 C 38.173205,76.164217 39.669266,76.943817 41.27717,78.132591 L 44.200631,80.293999 L 49.760376,74.061557 C 52.818236,70.633713 55.322144,67.266614 55.324616,66.579114 C 55.327928,65.658006 52.559842,65.329114 44.804111,65.329114 L 34.279111,65.329114 L 33.67754,68.33697 C 33.098618,71.23158 32.905778,71.328927 28.55564,70.922544 C 25.950593,70.679185 22.932367,69.598748 21.432211,68.372564 C 20.000506,67.20233 17.141611,65.520562 15.079111,64.6353 C 13.016611,63.750039 11.329111,62.737767 11.329111,62.385807 C 11.329111,61.766509 31.064865,54.263846 32.579111,54.307495 C 32.991611,54.319385 33.329111,55.679114 33.329111,57.329114 L 33.329111,60.329114 L 44.579111,60.313801 C 50.766611,60.305379 56.504111,59.85892 57.329111,59.321671 C 58.539139,58.533686 56.562076,56.092883 47.101928,46.695602 C 38.068292,37.721998 35.074582,35.295465 34.06789,36.130945 C 30.936898,38.729438 28.891861,36.797798 25.181016,27.736846 C 23.174564,22.837593 21.646574,18.707103 21.785484,18.557979 C 22.252639,18.056474 39.329111,26.229499 39.329111,26.95459 C 39.329111,27.348964 38.667874,28.402291 37.859696,29.295318 C 36.537627,30.756187 37.690802,32.216639 49.359696,43.859631 C 61.117148,55.590984 62.329111,56.539983 62.329111,54.015026 C 62.329111,49.872292 59.644462,45.329114 57.196442,45.329114 C 55.970251,45.329114 55.290628,44.815544 55.542278,44.079114 C 58.224141,36.230884 64.900259,19.329114 65.318408,19.329114 C 65.771931,19.329114 67.439748,23.558723 75.077816,44.079114 C 75.371694,44.868647 74.627434,45.329114 73.05742,45.329114 C 70.187077,45.329114 67.966621,49.431916 68.502316,53.745715 C 68.799829,56.141501 70.485925,54.717422 87.319395,37.852787 C 104.58038,20.559844 105.72261,19.188859 104.50011,17.231314 C 103.77984,16.077987 103.34601,14.978879 103.53604,14.788851 C 104.09467,14.230219 121.32911,6.3937964 121.32911,6.6984212 C 121.32911,6.851179 119.58407,10.993077 117.45124,15.902638 L 113.57338,24.829114 L 110.00159,24.506654 C 106.59496,24.199106 105.66449,24.934019 89.879452,40.399777 C 80.776765,49.318348 73.329111,57.000954 73.329111,57.472237 C 73.329111,57.943519 76.479111,58.329114 80.329111,58.329114 L 87.329111,58.329114 L 87.329111,54.329114 C 87.329111,52.129114 87.666611,50.317442 88.079111,50.303176 C 89.442941,50.256009 120.31591,61.817814 120.32258,62.378226 C 120.32617,62.680237 118.79665,63.48148 116.92365,64.158767 C 115.05065,64.836053 111.9623,66.446055 110.06065,67.736548 C 105.82739,70.609317 97.290091,73.826758 91.579111,74.701662 C 87.759127,75.286872 87.329111,75.147024 87.329111,73.319493 C 87.329111,71.348136 82.942266,68.382625 81.76604,69.558851 C 81.461,69.863892 82.587902,73.149232 84.270266,76.859607 C 85.952631,80.569983 87.329111,83.741189 87.329111,83.906731 C 87.329111,84.925683 75.952542,80.150624 72.43661,77.65594 C 72.220735,77.502768 72.629163,76.6725 73.344229,75.810898 C 75.207984,73.56521 73.352655,72.174405 69.516611,72.941614 L 66.329111,73.579114 L 66.329111,89.454114 C 66.329111,104.48307 66.432204,105.32911 68.263538,105.32911 C 70.165907,105.32911 70.164386,105.42854 68.171734,111.32911 C 67.057307,114.62911 65.938852,117.32911 65.68628,117.32911 C 65.433708,117.32911 64.605575,115.84169 63.845985,114.02374 z M 78.996405,68.663075 C 78.217346,67.884016 75.362672,69.5744 75.923882,70.482457 C 76.271648,71.045154 77.086647,70.945305 77.942305,70.235172 C 78.731631,69.580089 79.205976,68.872646 78.996405,68.663075 z " style="fill: rgb(113, 108, 108);" id="path2191"/>
    <path d="M 63.845985,114.02374 C 61.2763,107.87362 60.946983,105.32911 62.720703,105.32911 C 64.135506,105.32911 64.329111,103.28281 64.329111,88.329114 C 64.329111,68.028042 64.189275,67.88052 54.353136,77.804874 L 47.934938,84.280633 L 50.302634,86.800931 C 51.604867,88.187094 52.481056,89.492688 52.249721,89.702251 C 50.942155,90.886753 28.09127,101.32911 26.806805,101.32911 C 26.444423,101.32911 37.258185,77.14276 37.95259,76.400148 C 38.173205,76.164217 39.637498,76.920329 41.206573,78.080397 L 44.059437,80.18961 L 47.453732,76.509362 C 49.320594,74.485226 52.394546,71.141614 54.284736,69.079114 L 57.721445,65.329114 L 45.525278,65.329114 L 33.329111,65.329114 L 33.329111,68.329114 C 33.329111,69.979114 33.053835,71.329114 32.717387,71.329114 C 31.290761,71.329114 11.329111,62.995375 11.329111,62.399776 C 11.329111,61.770931 31.043989,54.263245 32.579111,54.307495 C 32.991611,54.319385 33.329111,55.679114 33.329111,57.329114 L 33.329111,60.329114 L 44.579111,60.313801 C 50.766611,60.305379 56.504111,59.868238 57.329111,59.342376 C 58.535618,58.573339 56.676832,56.21533 47.829111,47.29092 C 34.845643,34.194917 33.873494,33.526479 31.255888,35.89538 C 29.421725,37.555275 29.287495,37.472546 27.734512,33.725085 C 26.846523,31.582301 25.081267,27.354114 23.811722,24.329114 C 22.542177,21.304114 21.623741,18.707103 21.770753,18.557979 C 22.259572,18.062137 39.329111,26.224989 39.329111,26.95459 C 39.329111,27.348964 38.667874,28.402291 37.859696,29.295318 C 36.537627,30.756187 37.690802,32.216639 49.359696,43.859631 L 62.329111,56.800257 L 62.329111,51.064686 L 62.329111,45.329114 L 58.722122,45.329114 C 56.275387,45.329114 55.252532,44.927029 55.542278,44.079114 C 58.224141,36.230884 64.900259,19.329114 65.318408,19.329114 C 65.771931,19.329114 67.439748,23.558723 75.077816,44.079114 C 75.396048,44.934076 74.40317,45.329114 71.9361,45.329114 L 68.329111,45.329114 L 68.329111,51.075781 L 68.329111,56.822447 L 87.07201,38.079548 C 104.587,20.564554 105.72894,19.198996 104.50272,17.235502 C 103.78102,16.079872 103.34601,14.978879 103.53604,14.788851 C 104.09514,14.229753 121.32911,6.3939292 121.32911,6.6988207 C 121.32911,7.5387345 113.96428,23.97675 113.23907,24.755485 C 112.71939,25.313516 111.61556,24.993339 110.46296,23.950242 C 108.61576,22.27855 107.94014,22.812873 90.939328,39.390935 C 81.253708,48.835704 73.329111,56.960564 73.329111,57.446178 C 73.329111,57.931793 76.479111,58.329114 80.329111,58.329114 L 87.329111,58.329114 L 87.329111,54.329114 C 87.329111,52.129114 87.666611,50.317442 88.079111,50.303176 C 89.443901,50.255976 120.31592,61.81802 120.32258,62.37885 C 120.3286,62.885759 94.707728,73.220387 89.579111,74.779767 C 87.474337,75.419733 87.329111,75.169088 87.329111,70.896502 L 87.329111,66.329114 L 79.654797,66.329114 L 71.980483,66.329114 L 74.327707,68.82762 C 76.511335,71.151985 76.800036,71.212908 78.46989,69.701711 C 80.165716,68.167009 80.460643,68.506941 83.810072,75.856779 C 85.759946,80.135494 87.22918,83.762378 87.075038,83.916521 C 86.752971,84.238588 73.338675,78.672012 72.559708,77.893044 C 72.276129,77.609465 72.633698,76.667035 73.354307,75.798755 C 74.456934,74.470171 74.339703,73.895261 72.614339,72.169898 C 71.206128,70.761687 69.901126,70.330176 68.446643,70.791811 C 66.399766,71.441464 66.329111,72.028872 66.329111,88.396502 C 66.329111,104.47112 66.42713,105.32911 68.263538,105.32911 C 70.165907,105.32911 70.164386,105.42854 68.171734,111.32911 C 67.057307,114.62911 65.938852,117.32911 65.68628,117.32911 C 65.433708,117.32911 64.605575,115.84169 63.845985,114.02374 z " style="fill: rgb(149, 74, 74);" id="path2189"/>
    <path d="M 63.813483,113.63746 C 61.186339,107.34982 60.920559,105.32911 62.720703,105.32911 C 64.135506,105.32911 64.329111,103.28281 64.329111,88.329114 C 64.329111,68.028042 64.189275,67.88052 54.353136,77.804874 L 47.934938,84.280633 L 50.302634,86.800931 C 51.604867,88.187094 52.476184,89.515374 52.238895,89.752663 C 51.763196,90.228362 27.385479,101.32911 26.816524,101.32911 C 26.447662,101.32911 37.246332,77.155436 37.95259,76.400148 C 38.173205,76.164217 39.669068,76.94367 41.276728,78.132265 L 44.199748,80.293347 L 50.8024,73.06123 C 58.503801,64.625615 58.483785,64.59748 44.660898,64.428794 C 34.582198,64.3058 33.329111,64.747772 33.329111,68.425595 L 33.329111,71.308098 L 25.079111,68.238024 C 20.541611,66.549483 15.591611,64.71019 14.079111,64.150707 C 12.566611,63.591223 11.329111,62.821257 11.329111,62.439672 C 11.329111,61.783537 30.984679,54.261535 32.579111,54.307495 C 32.991611,54.319385 33.329111,55.679114 33.329111,57.329114 L 33.329111,60.329114 L 46.329111,60.329114 C 53.479111,60.329114 59.329111,59.997871 59.329111,59.593018 C 59.329111,59.188166 53.608995,53.124081 46.617742,46.117275 L 33.906373,33.377627 L 31.752177,35.401389 L 29.597981,37.425151 L 25.51912,28.154892 C 23.275746,23.05625 21.574761,18.750131 21.739153,18.585739 C 22.252101,18.072791 39.329111,26.197595 39.329111,26.95459 C 39.329111,27.348964 38.667874,28.402291 37.859696,29.295318 C 36.537627,30.756187 37.690802,32.216639 49.359696,43.859631 L 62.329111,56.800257 L 62.329111,51.064686 C 62.329111,45.787889 62.149139,45.327889 60.079111,45.313801 C 55.337258,45.28153 55.341613,44.298961 60.139988,31.578803 C 62.681485,24.841474 65.008009,19.329114 65.310043,19.329114 C 65.612076,19.329114 67.926092,24.841614 70.452299,31.579114 C 75.201718,44.24601 75.211286,45.282276 70.579111,45.313801 C 68.508874,45.327891 68.329111,45.78772 68.329111,51.069244 L 68.329111,56.809374 L 87.296377,37.861814 C 105.17238,20.004386 106.16999,18.810767 104.63584,17.115553 C 103.74055,16.126268 103.20458,15.120313 103.44479,14.880099 C 104.90386,13.421032 121.45379,6.5496115 121.03931,7.5749707 C 120.76049,8.2647495 118.85822,12.516992 116.81205,17.024399 C 113.10526,25.189881 113.08312,25.21404 110.72268,23.667423 C 108.38842,22.137956 108.08546,22.380721 90.091372,40.199746 L 71.829111,58.284329 L 79.579111,58.306722 L 87.329111,58.329114 L 87.329111,54.329114 C 87.329111,52.129114 87.666611,50.317442 88.079111,50.303176 C 89.373517,50.25841 120.31571,61.802958 120.32258,62.33323 C 120.32991,62.898889 110.45507,66.893236 96.579111,71.937409 L 87.329111,75.299957 L 87.329111,70.814535 L 87.329111,66.329114 L 79.601838,66.329114 L 71.874566,66.329114 L 74.544553,68.999101 C 76.812425,71.266973 77.452716,71.47142 78.795992,70.356601 C 79.66579,69.634732 80.518305,69.220738 80.69047,69.436613 C 81.13711,69.99665 87.329111,83.484 87.329111,83.89683 C 87.329111,84.252556 73.130915,78.383516 72.43661,77.740789 C 72.220735,77.54095 72.633698,76.667035 73.354307,75.798755 C 74.456934,74.470171 74.339703,73.895261 72.614339,72.169898 C 71.206128,70.761687 69.901126,70.330176 68.446643,70.791811 C 66.399766,71.441464 66.329111,72.028872 66.329111,88.396502 C 66.329111,104.47112 66.42713,105.32911 68.263538,105.32911 C 70.165907,105.32911 70.164386,105.42854 68.171734,111.32911 C 67.057307,114.62911 65.967853,117.32911 65.750727,117.32911 C 65.5336,117.32911 64.66184,115.66787 63.813483,113.63746 z " style="fill: rgb(164, 47, 47);" id="path2187"/>
    <path d="M 63.487174,112.02203 C 60.856738,104.99155 60.857046,105.32911 63.481078,105.32911 C 65.589852,105.32911 65.619959,105.11524 64.981078,94.673551 C 64.622496,88.812992 64.329111,81.162992 64.329111,77.673551 C 64.329111,69.308603 62.768365,69.314173 54.448344,77.708811 L 48.125354,84.088509 L 49.912184,86.815555 C 51.639022,89.451044 51.634716,89.580986 49.783922,90.685858 C 46.257351,92.791123 29.844128,100.22329 28.603862,100.27652 C 27.106621,100.34078 27.538543,99.12815 33.73882,85.859921 L 38.347453,75.997717 L 40.948062,78.413416 L 43.548672,80.829114 L 50.501876,73.330051 C 58.594915,64.60167 58.59304,64.598814 44.660898,64.428794 C 34.589114,64.305884 33.329111,64.749074 33.329111,68.414605 L 33.329111,71.286118 L 26.356169,68.770838 C 16.381451,65.172758 11.005049,62.64743 12.004464,62.029757 C 13.299047,61.229661 31.711916,54.344517 32.579111,54.336257 C 32.991611,54.332328 33.329111,55.679114 33.329111,57.329114 L 33.329111,60.329114 L 46.329111,60.329114 C 53.479111,60.329114 59.329111,59.985121 59.329111,59.564686 C 59.329111,59.14425 53.566174,53.050113 46.522585,46.022159 C 33.722538,33.250524 33.715107,33.245112 31.833452,35.324317 C 30.054976,37.289511 29.895435,37.305691 28.949084,35.616844 C 27.611558,33.229914 21.431347,18.329114 21.778876,18.329114 C 21.929238,18.329114 25.974771,20.167264 30.76895,22.413892 C 39.293251,26.408514 39.446438,26.541988 37.709492,28.461292 C 35.979186,30.373258 36.273977,30.764546 49.131227,43.621797 L 62.329111,56.81968 L 62.329111,51.074397 C 62.329111,45.78753 62.149584,45.327892 60.079111,45.313801 C 55.55032,45.28298 55.5789,44.179937 60.441451,31.329114 L 65.171256,18.829114 L 66.619263,22.329114 C 67.415666,24.254114 69.550924,29.806364 71.36428,34.667448 C 74.818915,43.928324 74.656502,45.273748 70.079111,45.313801 C 68.61747,45.326591 68.329111,46.274954 68.329111,51.069244 L 68.329111,56.809374 L 87.296377,37.861814 C 105.17238,20.004386 106.16999,18.810767 104.63584,17.115553 C 103.74055,16.126268 103.19278,15.134653 103.41857,14.911965 C 104.38025,13.963524 119.8409,7.5075742 120.22668,7.8933549 C 120.4599,8.1265685 118.95474,12.123547 116.8819,16.775528 C 113.11745,25.223895 113.11034,25.231874 110.73336,23.674419 C 108.38494,22.135677 108.11335,22.353103 90.091372,40.199746 L 71.829111,58.284329 L 79.579111,58.306722 L 87.329111,58.329114 L 87.329111,54.329114 C 87.329111,52.129114 87.629286,50.329114 87.996168,50.329114 C 89.435023,50.329114 119.32911,61.841545 119.32911,62.395658 C 119.32911,63.096896 103.6318,69.625903 94.079111,72.897929 L 87.329111,75.209968 L 87.329111,70.769541 L 87.329111,66.329114 L 79.601838,66.329114 L 71.874566,66.329114 L 74.588202,69.04275 C 76.715747,71.170295 77.563959,71.494266 78.515475,70.54275 C 80.181506,68.876719 81.006404,69.020052 81.602309,71.079114 C 81.880862,72.041614 83.269286,75.397653 84.687695,78.536978 L 87.266622,84.244841 L 81.047866,81.611482 C 72.855862,78.142542 71.981727,77.452612 73.484477,75.64191 C 75.207137,73.566231 71.363663,69.865985 68.446643,70.791811 C 66.400219,71.441321 66.329111,72.030159 66.329111,88.326951 C 66.329111,104.11532 66.450197,105.21037 68.229095,105.50956 C 70.065913,105.81849 70.054546,106.02793 67.887158,111.80954 L 65.645238,117.78997 L 63.487174,112.02203 z " style="fill: rgb(144, 46, 46);" id="path2185"/>
    <path d="M 63.466954,111.96798 C 60.859201,104.99814 60.858496,105.32911 63.481078,105.32911 C 65.589852,105.32911 65.619959,105.11524 64.981078,94.673551 C 64.622496,88.812992 64.329111,81.162992 64.329111,77.673551 C 64.329111,71.877608 64.145972,71.329114 62.21074,71.329114 C 60.920717,71.329114 57.563743,73.908014 53.625802,77.92425 L 47.159234,84.519386 L 49.414782,86.920307 C 50.655334,88.240813 51.459813,89.531745 51.202514,89.789045 C 50.511168,90.48039 32.169288,98.927677 29.564145,99.754517 C 26.88966,100.60336 26.870632,100.66636 33.742975,85.919787 L 38.361016,76.010459 L 40.871274,78.368724 L 43.381531,80.726988 L 50.855321,73.303079 C 54.965906,69.219928 58.329111,65.530407 58.329111,65.104142 C 58.329111,64.677876 52.731275,64.329114 45.889476,64.329114 L 33.449842,64.329114 L 33.139476,67.717933 L 32.829111,71.106753 L 21.901461,66.886744 C 15.891254,64.565739 11.400409,62.403083 11.921806,62.080842 C 13.274666,61.244729 31.678918,54.344831 32.579111,54.336257 C 32.991611,54.332328 33.329111,55.679114 33.329111,57.329114 L 33.329111,60.329114 L 47.074566,60.329114 L 60.82002,60.329114 L 47.122055,46.631149 C 33.596784,33.105878 33.398402,32.956431 31.386564,34.77712 C 29.381188,36.59196 29.324783,36.563003 27.811795,32.941914 C 26.966311,30.918386 25.186591,26.8027 23.85686,23.795943 C 22.52713,20.789187 21.577115,18.329114 21.745715,18.329114 C 21.914316,18.329114 25.974771,20.167264 30.76895,22.413892 C 39.293251,26.408514 39.446438,26.541988 37.709492,28.461292 C 35.979186,30.373258 36.273977,30.764546 49.131227,43.621797 L 62.329111,56.81968 L 62.329111,50.574397 L 62.329111,44.329114 L 58.954096,44.329114 L 55.579081,44.329114 L 60.204096,31.888721 C 62.747854,25.046504 65.132988,19.759004 65.504392,20.138721 C 66.292874,20.944847 74.329111,42.186689 74.329111,43.464722 C 74.329111,43.940138 72.979111,44.329114 71.329111,44.329114 L 68.329111,44.329114 L 68.329111,50.569244 L 68.329111,56.809374 L 87.296377,37.861814 C 105.17238,20.004386 106.16999,18.810767 104.63584,17.115553 C 103.74055,16.126268 103.19278,15.134653 103.41857,14.911965 C 104.34097,14.002263 119.83276,7.4994264 120.20079,7.8674587 C 120.41976,8.0864294 118.87452,12.094361 116.76692,16.773973 C 113.29115,24.491407 112.78325,25.145089 111.30328,23.805736 C 110.40587,22.993594 109.25237,22.329114 108.73995,22.329114 C 108.22753,22.329114 99.71765,30.429114 89.829111,40.329114 L 71.849948,58.329114 L 79.58953,58.329114 L 87.329111,58.329114 L 87.329111,54.329114 C 87.329111,52.129114 87.629286,50.329114 87.996168,50.329114 C 89.520022,50.329114 119.32911,61.858686 119.32911,62.448083 C 119.32911,63.114839 94.856954,72.656562 90.057287,73.861201 C 87.417973,74.523627 87.329111,74.41211 87.329111,70.437522 L 87.329111,66.329114 L 79.14202,66.329114 L 70.954929,66.329114 L 73.821759,69.32144 C 76.467802,72.083314 76.823538,72.191638 78.440852,70.72799 C 80.068696,69.254811 80.331946,69.415116 82.148378,72.985664 C 83.223774,75.099562 84.791435,78.480772 85.63207,80.499465 L 87.160498,84.169815 L 80.494805,81.186755 C 72.443002,77.583377 71.79608,77.01638 73.820041,75.336642 C 75.238489,74.159434 75.182047,73.801474 73.254461,71.749653 C 71.448671,69.827478 70.738417,69.64113 68.72115,70.560258 C 66.336851,71.646618 66.329111,71.704405 66.329111,88.420078 C 66.329111,103.98924 66.462317,105.21289 68.18947,105.50956 C 69.971582,105.81567 69.95635,106.07837 67.827313,111.75549 L 65.604797,117.68188 L 63.466954,111.96798 z " style="fill: rgb(151, 1, 1);" id="path2183"/>
    <path d="M 61.329111,70.951559 C 61.329111,70.743903 62.004111,70.013803 62.829111,69.329114 C 64.057619,68.309543 64.329111,68.377879 64.329111,69.706669 C 64.329111,70.599014 63.654111,71.329114 62.829111,71.329114 C 62.004111,71.329114 61.329111,71.159214 61.329111,70.951559 z M 66.329111,68.674126 C 66.329111,66.072145 66.369512,66.055701 68.352745,67.850503 C 69.898523,69.249412 70.075626,69.872739 69.102745,70.490177 C 66.95727,71.851801 66.329111,71.440511 66.329111,68.674126 z " style="fill: rgb(50, 46, 46);" id="path2181"/>
  </g>
</svg>