<?xml version="1.0" encoding="UTF-8" standalone="no"?>
<!-- Created with Inkscape (http://www.inkscape.org/) -->
<svg xmlns:dc="http://purl.org/dc/elements/1.1/" xmlns:cc="http://web.resource.org/cc/" xmlns:rdf="http://www.w3.org/1999/02/22-rdf-syntax-ns#" xmlns:svg="http://www.w3.org/2000/svg" xmlns="http://www.w3.org/2000/svg" xmlns:xlink="http://www.w3.org/1999/xlink" xmlns:sodipodi="http://inkscape.sourceforge.net/DTD/sodipodi-0.dtd" xmlns:inkscape="http://www.inkscape.org/namespaces/inkscape" height="200" id="svg1" inkscape:version="0.43" sodipodi:docbase="D:\Moje Pliki\Moje Dokumenty" sodipodi:docname="Sword_01.svg" sodipodi:version="0.32" width="200" version="1.0">
  <metadata id="metadata3">
    <rdf:RDF>
      <cc:Work rdf:about="">
        <dc:title>Sword</dc:title>
        <dc:description/>
        <dc:subject>
          <rdf:Bag>
            <rdf:li>weapon</rdf:li>
            <rdf:li/>
            <rdf:li>tool</rdf:li>
          </rdf:Bag>
        </dc:subject>
        <dc:publisher>
          <cc:Agent rdf:about="http://www.openclipart.org">
            <dc:title>Nicu Buculei</dc:title>
          </cc:Agent>
        </dc:publisher>
        <dc:creator>
          <cc:Agent>
            <dc:title>Nicu Buculei</dc:title>
          </cc:Agent>
        </dc:creator>
        <dc:rights>
          <cc:Agent>
            <dc:title>Nicu Buculei</dc:title>
          </cc:Agent>
        </dc:rights>
        <dc:date/>
        <dc:format>image/svg+xml</dc:format>
        <dc:type rdf:resource="http://purl.org/dc/dcmitype/StillImage"/>
        <cc:license rdf:resource="http://web.resource.org/cc/PublicDomain"/>
        <dc:language>en</dc:language>
      </cc:Work>
      <cc:License rdf:about="http://web.resource.org/cc/PublicDomain">
        <cc:permits rdf:resource="http://web.resource.org/cc/Reproduction"/>
        <cc:permits rdf:resource="http://web.resource.org/cc/Distribution"/>
        <cc:permits rdf:resource="http://web.resource.org/cc/DerivativeWorks"/>
      </cc:License>
    </rdf:RDF>
  </metadata>
  <defs id="defs3">
    <linearGradient id="linearGradient2199">
      <stop id="stop2200" offset="0.0000000" style="stop-color: rgb(1, 99, 255); stop-opacity: 0.101124;"/>
      <stop id="stop2201" offset="1.0000000" style="stop-color: rgb(255, 255, 255); stop-opacity: 0;"/>
    </linearGradient>
    <linearGradient id="linearGradient2180">
      <stop id="stop2181" offset="0.0000000" style="stop-color: rgb(176, 176, 176); stop-opacity: 1;"/>
      <stop id="stop2182" offset="1.0000000" style="stop-color: rgb(232, 232, 233); stop-opacity: 1;"/>
    </linearGradient>
    <linearGradient id="linearGradient2183" inkscape:collect="always" x1="666.22595" x2="692.38379" xlink:href="#linearGradient2180" y1="107.83209" y2="17.732885" gradientTransform="scale(0.33201, 3.01196)" gradientUnits="userSpaceOnUse"/>
    <linearGradient id="linearGradient2185" inkscape:collect="always" x1="676.04828" x2="571.41693" xlink:href="#linearGradient2180" y1="103.76309" y2="34.008873" gradientTransform="scale(0.33201, 3.01196)" gradientUnits="userSpaceOnUse"/>
    <linearGradient id="linearGradient2186" inkscape:collect="always" x1="130.54056" x2="130.54056" xlink:href="#linearGradient2180" y1="786.66321" y2="822.54553" gradientTransform="scale(1.69396, 0.590332)" gradientUnits="userSpaceOnUse"/>
    <linearGradient id="linearGradient2188" inkscape:collect="always" x1="143.7982" x2="106.52049" xlink:href="#linearGradient2180" y1="521.99512" y2="522.7182" gradientTransform="scale(1.50415, 0.664828)" gradientUnits="userSpaceOnUse"/>
    <linearGradient id="linearGradient2190" inkscape:collect="always" x1="145.81898" x2="193.42752" xlink:href="#linearGradient2180" y1="537.13806" y2="541.28821" gradientTransform="scale(1.50917, 0.662615)" gradientUnits="userSpaceOnUse"/>
    <linearGradient id="linearGradient2192" inkscape:collect="always" x1="147.87256" x2="118.72225" xlink:href="#linearGradient2180" y1="687.35699" y2="673.50146" gradientTransform="scale(1.46272, 0.683659)" gradientUnits="userSpaceOnUse"/>
    <linearGradient id="linearGradient2194" inkscape:collect="always" x1="151.10228" x2="177.23729" xlink:href="#linearGradient2180" y1="697.50122" y2="685.19318" gradientTransform="scale(1.49453, 0.669107)" gradientUnits="userSpaceOnUse"/>
    <linearGradient id="linearGradient2202" inkscape:collect="always" x1="423.39383" x2="556.42035" xlink:href="#linearGradient2199" y1="10.073052" y2="155.44394" gradientTransform="scale(0.463823, 2.15599)" gradientUnits="userSpaceOnUse"/>
    <linearGradient inkscape:collect="always" xlink:href="#linearGradient2180" id="linearGradient1400" x1="676.04828" y1="103.76309" x2="571.41693" y2="34.008873" gradientTransform="scale(0.33201, 3.01196)" gradientUnits="userSpaceOnUse"/>
    <linearGradient inkscape:collect="always" xlink:href="#linearGradient2180" id="linearGradient1402" x1="130.54056" y1="786.66321" x2="130.54056" y2="822.54553" gradientTransform="scale(1.69396, 0.590332)" gradientUnits="userSpaceOnUse"/>
    <linearGradient inkscape:collect="always" xlink:href="#linearGradient2180" id="linearGradient1404" x1="151.10228" y1="697.50122" x2="177.23729" y2="685.19318" gradientTransform="scale(1.49453, 0.669107)" gradientUnits="userSpaceOnUse"/>
    <linearGradient inkscape:collect="always" xlink:href="#linearGradient2180" id="linearGradient1406" x1="666.22595" y1="107.83209" x2="692.38379" y2="17.732885" gradientTransform="scale(0.33201, 3.01196)" gradientUnits="userSpaceOnUse"/>
    <linearGradient inkscape:collect="always" xlink:href="#linearGradient2199" id="linearGradient1408" x1="423.39383" y1="10.073052" x2="556.42035" y2="155.44394" gradientTransform="scale(0.463823, 2.15599)" gradientUnits="userSpaceOnUse"/>
    <linearGradient inkscape:collect="always" xlink:href="#linearGradient2180" id="linearGradient1410" x1="145.81898" y1="537.13806" x2="193.42752" y2="541.28821" gradientTransform="scale(1.50917, 0.662615)" gradientUnits="userSpaceOnUse"/>
    <linearGradient inkscape:collect="always" xlink:href="#linearGradient2180" id="linearGradient1412" x1="143.7982" y1="521.99512" x2="106.52049" y2="522.7182" gradientTransform="scale(1.50415, 0.664828)" gradientUnits="userSpaceOnUse"/>
    <linearGradient inkscape:collect="always" xlink:href="#linearGradient2180" id="linearGradient1414" x1="147.87256" y1="687.35699" x2="118.72225" y2="673.50146" gradientTransform="scale(1.46272, 0.683659)" gradientUnits="userSpaceOnUse"/>
    <linearGradient inkscape:collect="always" xlink:href="#linearGradient2180" id="linearGradient1462" gradientUnits="userSpaceOnUse" gradientTransform="scale(0.33201, 3.01196)" x1="676.04828" y1="103.76309" x2="571.41693" y2="34.008873"/>
    <linearGradient inkscape:collect="always" xlink:href="#linearGradient2180" id="linearGradient1464" gradientUnits="userSpaceOnUse" gradientTransform="scale(1.69396, 0.590332)" x1="130.54056" y1="786.66321" x2="130.54056" y2="822.54553"/>
    <linearGradient inkscape:collect="always" xlink:href="#linearGradient2180" id="linearGradient1466" gradientUnits="userSpaceOnUse" gradientTransform="scale(1.49453, 0.669107)" x1="151.10228" y1="697.50122" x2="177.23729" y2="685.19318"/>
    <linearGradient inkscape:collect="always" xlink:href="#linearGradient2180" id="linearGradient1468" gradientUnits="userSpaceOnUse" gradientTransform="scale(0.33201, 3.01196)" x1="666.22595" y1="107.83209" x2="692.38379" y2="17.732885"/>
    <linearGradient inkscape:collect="always" xlink:href="#linearGradient2199" id="linearGradient1470" gradientUnits="userSpaceOnUse" gradientTransform="scale(0.463823, 2.15599)" x1="423.39383" y1="10.073052" x2="556.42035" y2="155.44394"/>
    <linearGradient inkscape:collect="always" xlink:href="#linearGradient2180" id="linearGradient1472" gradientUnits="userSpaceOnUse" gradientTransform="scale(1.50917, 0.662615)" x1="145.81898" y1="537.13806" x2="193.42752" y2="541.28821"/>
    <linearGradient inkscape:collect="always" xlink:href="#linearGradient2180" id="linearGradient1474" gradientUnits="userSpaceOnUse" gradientTransform="scale(1.50415, 0.664828)" x1="143.7982" y1="521.99512" x2="106.52049" y2="522.7182"/>
    <linearGradient inkscape:collect="always" xlink:href="#linearGradient2180" id="linearGradient1476" gradientUnits="userSpaceOnUse" gradientTransform="scale(1.46272, 0.683659)" x1="147.87256" y1="687.35699" x2="118.72225" y2="673.50146"/>
    <linearGradient inkscape:collect="always" xlink:href="#linearGradient2180" id="linearGradient1478" gradientUnits="userSpaceOnUse" gradientTransform="scale(0.33201, 3.01196)" x1="676.04828" y1="103.76309" x2="571.41693" y2="34.008873"/>
    <linearGradient inkscape:collect="always" xlink:href="#linearGradient2180" id="linearGradient1480" gradientUnits="userSpaceOnUse" gradientTransform="scale(1.69396, 0.590332)" x1="130.54056" y1="786.66321" x2="130.54056" y2="822.54553"/>
    <linearGradient inkscape:collect="always" xlink:href="#linearGradient2180" id="linearGradient1482" gradientUnits="userSpaceOnUse" gradientTransform="scale(1.49453, 0.669107)" x1="151.10228" y1="697.50122" x2="177.23729" y2="685.19318"/>
    <linearGradient inkscape:collect="always" xlink:href="#linearGradient2180" id="linearGradient1484" gradientUnits="userSpaceOnUse" gradientTransform="scale(0.33201, 3.01196)" x1="666.22595" y1="107.83209" x2="692.38379" y2="17.732885"/>
    <linearGradient inkscape:collect="always" xlink:href="#linearGradient2199" id="linearGradient1486" gradientUnits="userSpaceOnUse" gradientTransform="scale(0.463823, 2.15599)" x1="423.39383" y1="10.073052" x2="556.42035" y2="155.44394"/>
    <linearGradient inkscape:collect="always" xlink:href="#linearGradient2180" id="linearGradient1488" gradientUnits="userSpaceOnUse" gradientTransform="scale(1.50917, 0.662615)" x1="145.81898" y1="537.13806" x2="193.42752" y2="541.28821"/>
    <linearGradient inkscape:collect="always" xlink:href="#linearGradient2180" id="linearGradient1490" gradientUnits="userSpaceOnUse" gradientTransform="scale(1.50415, 0.664828)" x1="143.7982" y1="521.99512" x2="106.52049" y2="522.7182"/>
    <linearGradient inkscape:collect="always" xlink:href="#linearGradient2180" id="linearGradient1492" gradientUnits="userSpaceOnUse" gradientTransform="scale(1.46272, 0.683659)" x1="147.87256" y1="687.35699" x2="118.72225" y2="673.50146"/>
  </defs>
  <sodipodi:namedview bordercolor="#666666" borderopacity="1.0" id="base" inkscape:cx="99.479794" inkscape:cy="114.37194" inkscape:pageopacity="0.0" inkscape:pageshadow="2" inkscape:window-height="696" inkscape:window-width="808" inkscape:window-x="191" inkscape:window-y="32" inkscape:zoom="2.8284271" pagecolor="#ffffff" showgrid="false" inkscape:current-layer="svg1"/>
  <g id="g1416" transform="matrix(0.943478, 0, 0, 0.941411, -159.496, -113.53)">
    <g transform="matrix(0.474621, 0.350743, -0.401444, 0.414678, 276.126, 42.4629)" id="g2841">
      <path style="fill: rgb(0, 0, 0); fill-opacity: 1; fill-rule: evenodd; stroke: rgb(0, 0, 0); stroke-width: 0.780845pt; stroke-linecap: butt; stroke-linejoin: miter; stroke-opacity: 1;" sodipodi:nodetypes="cccccc" id="path913" d="M 185.21055,64.144039 L 196.42823,348.20907 L 250.59689,347.1458 L 261.35665,57.671562 L 222.31071,1.8393175 L 185.21055,64.144039 z "/>
      <path style="fill: url(#linearGradient1462) rgb(0, 0, 0); fill-opacity: 1; fill-rule: evenodd; stroke: none; stroke-width: 1pt; stroke-linecap: butt; stroke-linejoin: miter; stroke-opacity: 1;" sodipodi:nodetypes="ccccc" id="path1556" d="M 186.82108,62.142974 L 198.60988,345.79566 L 224.45458,345.79566 L 223.32104,4.3881278 L 186.82108,62.142974 z "/>
      <path style="fill: rgb(0, 0, 0); fill-opacity: 1; fill-rule: evenodd; stroke: rgb(0, 0, 0); stroke-width: 0.780845pt; stroke-linecap: butt; stroke-linejoin: miter; stroke-opacity: 1;" sodipodi:nodetypes="ccccc" id="path2830" d="M 194.13236,463.61209 L 201.12098,486.59754 L 245.73916,486.13887 L 251.33837,464.85531 L 194.13236,463.61209 z "/>
      <path style="fill: url(#linearGradient1464) rgb(0, 0, 0); fill-opacity: 1; fill-rule: evenodd; stroke: none; stroke-width: 0.780845pt; stroke-linecap: butt; stroke-linejoin: miter; stroke-opacity: 1;" sodipodi:nodetypes="ccccc" id="path1553" d="M 195.20926,465.04796 L 202.46392,483.95814 L 243.72475,484.48343 L 250.9794,465.57324 L 195.20926,465.04796 z "/>
      <path style="fill: rgb(0, 0, 0); fill-opacity: 1; fill-rule: evenodd; stroke: rgb(0, 0, 0); stroke-width: 0.959924pt; stroke-linecap: butt; stroke-linejoin: miter; stroke-opacity: 1;" sodipodi:nodetypes="ccccccccccccccccccccccccccccccccccccccccccccccccccccccccc" id="path2832" d="M 197.70467,347.22194 L 199.19163,374.25347 L 197.58971,377.25347 L 197.20498,381.6382 L 199.70254,383.57814 L 200.04873,390.75347 L 197.93346,393.97222 L 198.02964,398.26077 L 200.29873,400.3257 L 201.05846,407.90972 L 201.02721,407.90972 L 198.42859,410.52012 L 198.62096,415.06597 L 201.37096,417.06597 L 201.18346,423.84722 L 198.87339,427.32327 L 198.77721,431.00347 L 201.52721,433.00347 L 202.15221,439.34722 L 199.55603,442.0538 L 199.36366,446.82327 L 202.40221,448.53472 L 202.49596,448.50347 L 202.52721,449.53472 L 218.49596,449.81597 L 203.43346,455.69097 L 201.02721,458.87847 L 201.02721,462.84722 L 203.77721,464.84722 L 241.52721,450.25347 L 245.12096,450.31597 L 245.18346,448.69097 L 247.84214,446.10695 L 247.74596,441.75347 L 246.07306,439.53472 L 245.77721,431.25347 L 248.57063,428.72465 L 248.08971,424.62847 L 246.37826,422.46735 L 246.33971,415.56597 L 249.40464,412.66945 L 249.78938,408.50834 L 246.90221,405.90972 L 247.38313,399.51077 L 249.80846,395.97222 L 249.80846,392.19584 L 247.40221,389.59722 L 247.91194,382.07084 L 250.15221,378.84722 L 250.15221,374.87847 L 248.32063,372.56597 L 248.12096,364.87847 L 250.83971,361.72222 L 250.83971,357.75347 L 248.46471,355.40972 L 248.74596,347.12847 L 197.70467,347.22194 z "/>
      <path style="fill: rgb(48, 48, 48); fill-opacity: 1; fill-rule: evenodd; stroke: none; stroke-width: 0.959924pt; stroke-linecap: butt; stroke-linejoin: miter; stroke-opacity: 1;" sodipodi:nodetypes="ccccc" id="path1545" d="M 198.83659,346.60264 L 202.46392,449.80292 L 245.085,450.59676 L 248.71232,347.39648 L 198.83659,346.60264 z "/>
      <path style="fill: rgb(0, 0, 144); fill-opacity: 1; fill-rule: evenodd; stroke: rgb(0, 0, 0); stroke-width: 0.780845pt; stroke-linecap: butt; stroke-linejoin: miter; stroke-opacity: 1;" sodipodi:nodetypes="ccccccccc" id="path2206" d="M 200.28955,383.50377 L 248.05339,365.19163 L 250.80239,362.00691 L 250.80239,358.02602 L 248.39702,355.63749 L 199.94591,374.3477 L 197.54053,377.53242 L 197.54053,381.51331 L 200.28955,383.50377 z "/>
      <path style="fill: rgb(0, 0, 144); fill-opacity: 1; fill-rule: evenodd; stroke: rgb(0, 0, 0); stroke-width: 0.780845pt; stroke-linecap: butt; stroke-linejoin: miter; stroke-opacity: 1;" sodipodi:nodetypes="ccccccccc" id="path2208" d="M 203.72579,465.11218 L 244.96076,449.18859 L 247.70976,446.00388 L 247.70976,442.02297 L 245.30439,439.63444 L 203.38216,455.95612 L 200.97678,459.14083 L 200.97678,463.12175 L 203.72579,465.11218 z "/>
      <path style="fill: rgb(0, 0, 0); fill-opacity: 1; fill-rule: evenodd; stroke: rgb(0, 0, 0); stroke-width: 0.780845pt; stroke-linecap: butt; stroke-linejoin: miter; stroke-opacity: 1;" sodipodi:nodetypes="ccccc" id="path1550" d="M 170.7901,446.96258 L 175.44786,473.0068 L 270.36301,472.2356 L 273.2724,448.3789 L 170.7901,446.96258 z "/>
      <path style="fill: rgb(0, 0, 144); fill-opacity: 1; fill-rule: evenodd; stroke: rgb(0, 0, 0); stroke-width: 0.780845pt; stroke-linecap: butt; stroke-linejoin: miter; stroke-opacity: 1;" sodipodi:nodetypes="ccccccccc" id="path2207" d="M 202.3513,448.7905 L 245.30439,432.07073 L 248.05339,428.88601 L 248.05339,424.90512 L 245.64802,422.51657 L 202.00766,439.63444 L 199.60228,442.81916 L 199.60228,446.80006 L 202.3513,448.7905 z "/>
      <path style="fill: rgb(0, 0, 144); fill-opacity: 1; fill-rule: evenodd; stroke: rgb(0, 0, 0); stroke-width: 0.780845pt; stroke-linecap: butt; stroke-linejoin: miter; stroke-opacity: 1;" id="path2203" d="M 201.49222,433.265 L 246.50708,415.74904 L 249.25608,412.56432 L 249.25608,408.58344 L 246.8507,406.1949 L 201.14859,424.10893 L 198.74322,427.29365 L 198.74322,431.27455 L 201.49222,433.265 z "/>
      <path style="fill: rgb(0, 0, 144); fill-opacity: 1; fill-rule: evenodd; stroke: rgb(0, 0, 0); stroke-width: 0.780845pt; stroke-linecap: butt; stroke-linejoin: miter; stroke-opacity: 1;" sodipodi:nodetypes="ccccccccc" id="path2204" d="M 201.32041,417.3414 L 247.02251,399.42736 L 249.77151,396.24264 L 249.77151,392.26174 L 247.36614,389.8732 L 200.97678,408.18533 L 198.57141,411.37006 L 198.57141,415.35096 L 201.32041,417.3414 z "/>
      <path style="fill: rgb(0, 0, 144); fill-opacity: 1; fill-rule: evenodd; stroke: rgb(0, 0, 0); stroke-width: 0.780845pt; stroke-linecap: butt; stroke-linejoin: miter; stroke-opacity: 1;" sodipodi:nodetypes="ccccccccc" id="path2205" d="M 200.63316,400.22354 L 247.36614,382.30949 L 250.11514,379.12478 L 250.11514,375.14389 L 247.70977,372.75534 L 200.28953,391.06747 L 197.88416,394.2522 L 197.88416,398.23309 L 200.63316,400.22354 z "/>
      <path style="fill: url(#linearGradient1466) rgb(0, 0, 0); fill-opacity: 1; fill-rule: evenodd; stroke: none; stroke-width: 1pt; stroke-linecap: butt; stroke-linejoin: miter; stroke-opacity: 1;" sodipodi:nodetypes="ccccc" id="path2193" d="M 272.51665,449.02685 L 268.88932,471.08871 L 222.71654,472.12611 L 220.9217,450.24372 L 272.51665,449.02685 z "/>
      <path style="fill: url(#linearGradient1468) rgb(0, 0, 0); fill-opacity: 1; fill-rule: evenodd; stroke: none; stroke-width: 1pt; stroke-linecap: butt; stroke-linejoin: miter; stroke-opacity: 1;" sodipodi:nodetypes="ccccc" id="path2184" d="M 260.27442,62.142974 L 248.48562,345.79566 L 222.64092,345.79566 L 223.77446,4.3881278 L 260.27442,62.142974 z "/>
      <path style="fill: url(#linearGradient1470) rgb(0, 0, 0); fill-opacity: 1; fill-rule: evenodd; stroke: none; stroke-width: 1pt; stroke-linecap: butt; stroke-linejoin: miter; stroke-opacity: 1;" id="path2196" d="M 222.5964,4.2080115 L 186.09644,61.989112 L 197.88524,345.64179 L 221.91628,345.64179 L 223.72994,345.64179 L 247.76098,345.64179 L 259.54978,61.989112 L 223.04982,4.2080115 L 222.82311,72.494767 L 222.5964,4.2080115 z "/>
      <path style="fill: rgb(0, 0, 0); fill-opacity: 1; fill-rule: evenodd; stroke: rgb(0, 0, 0); stroke-width: 0.780845pt; stroke-linecap: butt; stroke-linejoin: miter; stroke-opacity: 1;" sodipodi:nodetypes="ccccccc" id="path1543" d="M 158.28033,346.13463 L 159.81217,378.13683 L 221.96079,365.32304 L 284.87533,375.84962 L 285.46967,344.78492 L 222.41421,346.85935 L 158.28033,346.13463 z "/>
      <path style="fill: url(#linearGradient1472) rgb(0, 0, 0); fill-opacity: 1; fill-rule: evenodd; stroke: none; stroke-width: 1pt; stroke-linecap: butt; stroke-linejoin: miter; stroke-opacity: 1;" sodipodi:nodetypes="ccccc" id="path2189" d="M 284.53217,346.85935 L 283.62533,374.17405 L 222.63616,364.22881 L 222.32014,347.13086 L 284.53217,346.85935 z "/>
      <path style="fill: url(#linearGradient1474) rgb(0, 0, 0); fill-opacity: 1; fill-rule: evenodd; stroke: none; stroke-width: 1pt; stroke-linecap: butt; stroke-linejoin: miter; stroke-opacity: 1;" sodipodi:nodetypes="ccccc" id="path2187" d="M 160.06954,347.64727 L 160.97637,374.96197 L 223.05639,364.25226 L 222.64092,347.122 L 160.06954,347.64727 z "/>
      <path style="fill: url(#linearGradient1476) rgb(0, 0, 0); fill-opacity: 1; fill-rule: evenodd; stroke: none; stroke-width: 1pt; stroke-linecap: butt; stroke-linejoin: miter; stroke-opacity: 1;" sodipodi:nodetypes="ccccc" id="path2191" d="M 172.76518,448.50155 L 176.39251,470.56344 L 223.43208,472.18271 L 221.49917,450.22305 L 172.76518,448.50155 z "/>
      <path style="fill: rgb(0, 0, 0); fill-opacity: 1; fill-rule: evenodd; stroke: none; stroke-width: 3.75; stroke-linecap: butt; stroke-linejoin: round; stroke-miterlimit: 4; stroke-opacity: 1;" sodipodi:nodetypes="ccccc" id="path2195" d="M 223,6.375 L 221.4375,346 L 225.1875,346 L 223.625,6.6875 L 223,6.375 z "/>
    </g>
    <g id="g1340" transform="matrix(-0.474621, 0.350743, 0.401444, 0.414678, 274.286, 42.4629)">
      <path d="M 185.21055,64.144039 L 196.42823,348.20907 L 250.59689,347.1458 L 261.35665,57.671562 L 222.31071,1.8393175 L 185.21055,64.144039 z " id="path1342" sodipodi:nodetypes="cccccc" style="fill: rgb(0, 0, 0); fill-opacity: 1; fill-rule: evenodd; stroke: rgb(0, 0, 0); stroke-width: 0.780845pt; stroke-linecap: butt; stroke-linejoin: miter; stroke-opacity: 1;"/>
      <path d="M 186.82108,62.142974 L 198.60988,345.79566 L 224.45458,345.79566 L 223.32104,4.3881278 L 186.82108,62.142974 z " id="path1344" sodipodi:nodetypes="ccccc" style="fill: url(#linearGradient1478) rgb(0, 0, 0); fill-opacity: 1; fill-rule: evenodd; stroke: none; stroke-width: 1pt; stroke-linecap: butt; stroke-linejoin: miter; stroke-opacity: 1;"/>
      <path d="M 194.13236,463.61209 L 201.12098,486.59754 L 245.73916,486.13887 L 251.33837,464.85531 L 194.13236,463.61209 z " id="path1346" sodipodi:nodetypes="ccccc" style="fill: rgb(0, 0, 0); fill-opacity: 1; fill-rule: evenodd; stroke: rgb(0, 0, 0); stroke-width: 0.780845pt; stroke-linecap: butt; stroke-linejoin: miter; stroke-opacity: 1;"/>
      <path d="M 195.20926,465.04796 L 202.46392,483.95814 L 243.72475,484.48343 L 250.9794,465.57324 L 195.20926,465.04796 z " id="path1348" sodipodi:nodetypes="ccccc" style="fill: url(#linearGradient1480) rgb(0, 0, 0); fill-opacity: 1; fill-rule: evenodd; stroke: none; stroke-width: 0.780845pt; stroke-linecap: butt; stroke-linejoin: miter; stroke-opacity: 1;"/>
      <path d="M 197.70467,347.22194 L 199.19163,374.25347 L 197.58971,377.25347 L 197.20498,381.6382 L 199.70254,383.57814 L 200.04873,390.75347 L 197.93346,393.97222 L 198.02964,398.26077 L 200.29873,400.3257 L 201.05846,407.90972 L 201.02721,407.90972 L 198.42859,410.52012 L 198.62096,415.06597 L 201.37096,417.06597 L 201.18346,423.84722 L 198.87339,427.32327 L 198.77721,431.00347 L 201.52721,433.00347 L 202.15221,439.34722 L 199.55603,442.0538 L 199.36366,446.82327 L 202.40221,448.53472 L 202.49596,448.50347 L 202.52721,449.53472 L 218.49596,449.81597 L 203.43346,455.69097 L 201.02721,458.87847 L 201.02721,462.84722 L 203.77721,464.84722 L 241.52721,450.25347 L 245.12096,450.31597 L 245.18346,448.69097 L 247.84214,446.10695 L 247.74596,441.75347 L 246.07306,439.53472 L 245.77721,431.25347 L 248.57063,428.72465 L 248.08971,424.62847 L 246.37826,422.46735 L 246.33971,415.56597 L 249.40464,412.66945 L 249.78938,408.50834 L 246.90221,405.90972 L 247.38313,399.51077 L 249.80846,395.97222 L 249.80846,392.19584 L 247.40221,389.59722 L 247.91194,382.07084 L 250.15221,378.84722 L 250.15221,374.87847 L 248.32063,372.56597 L 248.12096,364.87847 L 250.83971,361.72222 L 250.83971,357.75347 L 248.46471,355.40972 L 248.74596,347.12847 L 197.70467,347.22194 z " id="path1350" sodipodi:nodetypes="ccccccccccccccccccccccccccccccccccccccccccccccccccccccccc" style="fill: rgb(0, 0, 0); fill-opacity: 1; fill-rule: evenodd; stroke: rgb(0, 0, 0); stroke-width: 0.959924pt; stroke-linecap: butt; stroke-linejoin: miter; stroke-opacity: 1;"/>
      <path d="M 198.83659,346.60264 L 202.46392,449.80292 L 245.085,450.59676 L 248.71232,347.39648 L 198.83659,346.60264 z " id="path1352" sodipodi:nodetypes="ccccc" style="fill: rgb(48, 48, 48); fill-opacity: 1; fill-rule: evenodd; stroke: none; stroke-width: 0.959924pt; stroke-linecap: butt; stroke-linejoin: miter; stroke-opacity: 1;"/>
      <path d="M 200.28955,383.50377 L 248.05339,365.19163 L 250.80239,362.00691 L 250.80239,358.02602 L 248.39702,355.63749 L 199.94591,374.3477 L 197.54053,377.53242 L 197.54053,381.51331 L 200.28955,383.50377 z " id="path1354" sodipodi:nodetypes="ccccccccc" style="fill: rgb(0, 0, 144); fill-opacity: 1; fill-rule: evenodd; stroke: rgb(0, 0, 0); stroke-width: 0.780845pt; stroke-linecap: butt; stroke-linejoin: miter; stroke-opacity: 1;"/>
      <path d="M 203.72579,465.11218 L 244.96076,449.18859 L 247.70976,446.00388 L 247.70976,442.02297 L 245.30439,439.63444 L 203.38216,455.95612 L 200.97678,459.14083 L 200.97678,463.12175 L 203.72579,465.11218 z " id="path1356" sodipodi:nodetypes="ccccccccc" style="fill: rgb(0, 0, 144); fill-opacity: 1; fill-rule: evenodd; stroke: rgb(0, 0, 0); stroke-width: 0.780845pt; stroke-linecap: butt; stroke-linejoin: miter; stroke-opacity: 1;"/>
      <path d="M 170.7901,446.96258 L 175.44786,473.0068 L 270.36301,472.2356 L 273.2724,448.3789 L 170.7901,446.96258 z " id="path1358" sodipodi:nodetypes="ccccc" style="fill: rgb(0, 0, 0); fill-opacity: 1; fill-rule: evenodd; stroke: rgb(0, 0, 0); stroke-width: 0.780845pt; stroke-linecap: butt; stroke-linejoin: miter; stroke-opacity: 1;"/>
      <path d="M 202.3513,448.7905 L 245.30439,432.07073 L 248.05339,428.88601 L 248.05339,424.90512 L 245.64802,422.51657 L 202.00766,439.63444 L 199.60228,442.81916 L 199.60228,446.80006 L 202.3513,448.7905 z " id="path1360" sodipodi:nodetypes="ccccccccc" style="fill: rgb(0, 0, 144); fill-opacity: 1; fill-rule: evenodd; stroke: rgb(0, 0, 0); stroke-width: 0.780845pt; stroke-linecap: butt; stroke-linejoin: miter; stroke-opacity: 1;"/>
      <path d="M 201.49222,433.265 L 246.50708,415.74904 L 249.25608,412.56432 L 249.25608,408.58344 L 246.8507,406.1949 L 201.14859,424.10893 L 198.74322,427.29365 L 198.74322,431.27455 L 201.49222,433.265 z " id="path1362" style="fill: rgb(0, 0, 144); fill-opacity: 1; fill-rule: evenodd; stroke: rgb(0, 0, 0); stroke-width: 0.780845pt; stroke-linecap: butt; stroke-linejoin: miter; stroke-opacity: 1;"/>
      <path d="M 201.32041,417.3414 L 247.02251,399.42736 L 249.77151,396.24264 L 249.77151,392.26174 L 247.36614,389.8732 L 200.97678,408.18533 L 198.57141,411.37006 L 198.57141,415.35096 L 201.32041,417.3414 z " id="path1364" sodipodi:nodetypes="ccccccccc" style="fill: rgb(0, 0, 144); fill-opacity: 1; fill-rule: evenodd; stroke: rgb(0, 0, 0); stroke-width: 0.780845pt; stroke-linecap: butt; stroke-linejoin: miter; stroke-opacity: 1;"/>
      <path d="M 200.63316,400.22354 L 247.36614,382.30949 L 250.11514,379.12478 L 250.11514,375.14389 L 247.70977,372.75534 L 200.28953,391.06747 L 197.88416,394.2522 L 197.88416,398.23309 L 200.63316,400.22354 z " id="path1366" sodipodi:nodetypes="ccccccccc" style="fill: rgb(0, 0, 144); fill-opacity: 1; fill-rule: evenodd; stroke: rgb(0, 0, 0); stroke-width: 0.780845pt; stroke-linecap: butt; stroke-linejoin: miter; stroke-opacity: 1;"/>
      <path d="M 272.51665,449.02685 L 268.88932,471.08871 L 222.71654,472.12611 L 220.9217,450.24372 L 272.51665,449.02685 z " id="path1368" sodipodi:nodetypes="ccccc" style="fill: url(#linearGradient1482) rgb(0, 0, 0); fill-opacity: 1; fill-rule: evenodd; stroke: none; stroke-width: 1pt; stroke-linecap: butt; stroke-linejoin: miter; stroke-opacity: 1;"/>
      <path d="M 260.27442,62.142974 L 248.48562,345.79566 L 222.64092,345.79566 L 223.77446,4.3881278 L 260.27442,62.142974 z " id="path1370" sodipodi:nodetypes="ccccc" style="fill: url(#linearGradient1484) rgb(0, 0, 0); fill-opacity: 1; fill-rule: evenodd; stroke: none; stroke-width: 1pt; stroke-linecap: butt; stroke-linejoin: miter; stroke-opacity: 1;"/>
      <path d="M 222.5964,4.2080115 L 186.09644,61.989112 L 197.88524,345.64179 L 221.91628,345.64179 L 223.72994,345.64179 L 247.76098,345.64179 L 259.54978,61.989112 L 223.04982,4.2080115 L 222.82311,72.494767 L 222.5964,4.2080115 z " id="path1372" style="fill: url(#linearGradient1486) rgb(0, 0, 0); fill-opacity: 1; fill-rule: evenodd; stroke: none; stroke-width: 1pt; stroke-linecap: butt; stroke-linejoin: miter; stroke-opacity: 1;"/>
      <path d="M 158.28033,346.13463 L 159.81217,378.13683 L 221.96079,365.32304 L 284.87533,375.84962 L 285.46967,344.78492 L 222.41421,346.85935 L 158.28033,346.13463 z " id="path1374" sodipodi:nodetypes="ccccccc" style="fill: rgb(0, 0, 0); fill-opacity: 1; fill-rule: evenodd; stroke: rgb(0, 0, 0); stroke-width: 0.780845pt; stroke-linecap: butt; stroke-linejoin: miter; stroke-opacity: 1;"/>
      <path d="M 284.53217,346.85935 L 283.62533,374.17405 L 222.63616,364.22881 L 222.32014,347.13086 L 284.53217,346.85935 z " id="path1376" sodipodi:nodetypes="ccccc" style="fill: url(#linearGradient1488) rgb(0, 0, 0); fill-opacity: 1; fill-rule: evenodd; stroke: none; stroke-width: 1pt; stroke-linecap: butt; stroke-linejoin: miter; stroke-opacity: 1;"/>
      <path d="M 160.06954,347.64727 L 160.97637,374.96197 L 223.05639,364.25226 L 222.64092,347.122 L 160.06954,347.64727 z " id="path1378" sodipodi:nodetypes="ccccc" style="fill: url(#linearGradient1490) rgb(0, 0, 0); fill-opacity: 1; fill-rule: evenodd; stroke: none; stroke-width: 1pt; stroke-linecap: butt; stroke-linejoin: miter; stroke-opacity: 1;"/>
      <path d="M 172.76518,448.50155 L 176.39251,470.56344 L 223.43208,472.18271 L 221.49917,450.22305 L 172.76518,448.50155 z " id="path1380" sodipodi:nodetypes="ccccc" style="fill: url(#linearGradient1492) rgb(0, 0, 0); fill-opacity: 1; fill-rule: evenodd; stroke: none; stroke-width: 1pt; stroke-linecap: butt; stroke-linejoin: miter; stroke-opacity: 1;"/>
      <path d="M 223,6.375 L 221.4375,346 L 225.1875,346 L 223.625,6.6875 L 223,6.375 z " id="path1382" sodipodi:nodetypes="ccccc" style="fill: rgb(0, 0, 0); fill-opacity: 1; fill-rule: evenodd; stroke: none; stroke-width: 3.75; stroke-linecap: butt; stroke-linejoin: round; stroke-miterlimit: 4; stroke-opacity: 1;"/>
    </g>
  </g>
</svg>